<?xml version="1.0" encoding="UTF-8"?>
<svg version="1.1" xmlns="http://www.w3.org/2000/svg" width="1064" height="1064">
<path d="M0 0 C0.95535645 0.47373047 1.91071289 0.94746094 2.89501953 1.43554688 C24.57809393 12.23449563 45.34669968 24.83528466 65 39 C65.74266113 39.53302734 66.48532227 40.06605469 67.25048828 40.61523438 C78.481022 48.70324757 89.3852768 57.12005449 100 66 C100.59619141 66.49709473 101.19238281 66.99418945 101.80664062 67.50634766 C115.32726419 78.81701263 128.0201874 90.9351868 140.5 103.375 C141.43199219 104.30231934 142.36398437 105.22963867 143.32421875 106.18505859 C148.42481323 111.29761334 153.31009972 116.51045275 158 122 C159.02132647 123.15681513 160.0447288 124.31180122 161.0703125 125.46484375 C168.55031273 133.94064099 175.55756697 142.69014098 182.31884766 151.74804688 C183.46095583 153.27793445 184.60659373 154.80519201 185.75537109 156.33007812 C193.99231939 167.26467761 201.79379126 178.35956145 209 190 C209.84449707 191.35641602 209.84449707 191.35641602 210.70605469 192.74023438 C220.63172619 208.75144654 229.59397297 225.14446181 238 242 C238.43006348 242.85754883 238.86012695 243.71509766 239.30322266 244.59863281 C266.81842396 299.81042942 282.57884847 360.81069555 289 422 C289.11714355 423.07330566 289.23428711 424.14661133 289.35498047 425.25244141 C299.12632085 518.68271682 281.34750619 615.92648489 234 716 C233.52626953 716.95535645 233.05253906 717.91071289 232.56445312 718.89501953 C221.76550437 740.57809393 209.16471534 761.34669968 195 781 C194.46697266 781.74266113 193.93394531 782.48532227 193.38476562 783.25048828 C185.29675243 794.481022 176.87994551 805.3852768 168 816 C167.25435791 816.89428711 167.25435791 816.89428711 166.49365234 817.80664062 C155.18298737 831.32726419 143.0648132 844.0201874 130.625 856.5 C129.69768066 857.43199219 128.77036133 858.36398437 127.81494141 859.32421875 C122.70238666 864.42481323 117.48954725 869.31009972 112 874 C110.84318487 875.02132647 109.68819878 876.0447288 108.53515625 877.0703125 C100.05935901 884.55031273 91.30985902 891.55756697 82.25195312 898.31884766 C80.72206555 899.46095583 79.19480799 900.60659373 77.66992188 901.75537109 C66.73532239 909.99231939 55.64043855 917.79379126 44 925 C43.09572266 925.56299805 42.19144531 926.12599609 41.25976562 926.70605469 C25.24855346 936.63172619 8.85553819 945.59397297 -8 954 C-8.85754883 954.43006348 -9.71509766 954.86012695 -10.59863281 955.30322266 C-65.81042942 982.81842396 -126.81069555 998.57884847 -188 1005 C-189.07330566 1005.11714355 -190.14661133 1005.23428711 -191.25244141 1005.35498047 C-284.68271682 1015.12632085 -381.92648489 997.34750619 -482 950 C-483.43303467 949.2894043 -483.43303467 949.2894043 -484.89501953 948.56445312 C-506.57809393 937.76550437 -527.34669968 925.16471534 -547 911 C-547.74266113 910.46697266 -548.48532227 909.93394531 -549.25048828 909.38476562 C-560.481022 901.29675243 -571.3852768 892.87994551 -582 884 C-582.89428711 883.25435791 -582.89428711 883.25435791 -583.80664062 882.49365234 C-597.32726419 871.18298737 -610.0201874 859.0648132 -622.5 846.625 C-623.43199219 845.69768066 -624.36398437 844.77036133 -625.32421875 843.81494141 C-630.42481323 838.70238666 -635.31009972 833.48954725 -640 828 C-641.02132647 826.84318487 -642.0447288 825.68819878 -643.0703125 824.53515625 C-650.55031273 816.05935901 -657.55756697 807.30985902 -664.31884766 798.25195312 C-665.46095583 796.72206555 -666.60659373 795.19480799 -667.75537109 793.66992188 C-675.99231939 782.73532239 -683.79379126 771.64043855 -691 760 C-691.84449707 758.64358398 -691.84449707 758.64358398 -692.70605469 757.25976562 C-702.63172619 741.24855346 -711.59397297 724.85553819 -720 708 C-720.43006348 707.14245117 -720.86012695 706.28490234 -721.30322266 705.40136719 C-748.81842396 650.18957058 -764.57884847 589.18930445 -771 528 C-771.11714355 526.92669434 -771.23428711 525.85338867 -771.35498047 524.74755859 C-781.12632085 431.31728318 -763.34750619 334.07351511 -716 234 C-715.52626953 233.04464355 -715.05253906 232.08928711 -714.56445312 231.10498047 C-703.76550437 209.42190607 -691.16471534 188.65330032 -677 169 C-676.46697266 168.25733887 -675.93394531 167.51467773 -675.38476562 166.74951172 C-667.29675243 155.518978 -658.87994551 144.6147232 -650 134 C-649.50290527 133.40380859 -649.00581055 132.80761719 -648.49365234 132.19335938 C-637.18298737 118.67273581 -625.0648132 105.9798126 -612.625 93.5 C-611.69768066 92.56800781 -610.77036133 91.63601562 -609.81494141 90.67578125 C-604.70238666 85.57518677 -599.48954725 80.68990028 -594 76 C-592.84318487 74.97867353 -591.68819878 73.9552712 -590.53515625 72.9296875 C-582.05935901 65.44968727 -573.30985902 58.44243303 -564.25195312 51.68115234 C-562.72206555 50.53904417 -561.19480799 49.39340627 -559.66992188 48.24462891 C-548.73532239 40.00768061 -537.64043855 32.20620874 -526 25 C-525.09572266 24.43700195 -524.19144531 23.87400391 -523.25976562 23.29394531 C-507.24855346 13.36827381 -490.85553819 4.40602703 -474 -4 C-473.14245117 -4.43006348 -472.28490234 -4.86012695 -471.40136719 -5.30322266 C-416.18957058 -32.81842396 -355.18930445 -48.57884847 -294 -55 C-292.3900415 -55.17571533 -292.3900415 -55.17571533 -290.74755859 -55.35498047 C-197.31728318 -65.12632085 -100.07351511 -47.34750619 0 0 Z " fill="#FDFDFD" transform="translate(773,57)"/>
<path d="M0 0 C0.95535645 0.47373047 1.91071289 0.94746094 2.89501953 1.43554688 C24.57809393 12.23449563 45.34669968 24.83528466 65 39 C65.74266113 39.53302734 66.48532227 40.06605469 67.25048828 40.61523438 C78.481022 48.70324757 89.3852768 57.12005449 100 66 C100.59619141 66.49709473 101.19238281 66.99418945 101.80664062 67.50634766 C115.32726419 78.81701263 128.0201874 90.9351868 140.5 103.375 C141.43199219 104.30231934 142.36398437 105.22963867 143.32421875 106.18505859 C148.42481323 111.29761334 153.31009972 116.51045275 158 122 C159.02132647 123.15681513 160.0447288 124.31180122 161.0703125 125.46484375 C168.55031273 133.94064099 175.55756697 142.69014098 182.31884766 151.74804688 C183.46095583 153.27793445 184.60659373 154.80519201 185.75537109 156.33007812 C193.99231939 167.26467761 201.79379126 178.35956145 209 190 C209.84449707 191.35641602 209.84449707 191.35641602 210.70605469 192.74023438 C220.63172619 208.75144654 229.59397297 225.14446181 238 242 C238.43006348 242.85754883 238.86012695 243.71509766 239.30322266 244.59863281 C266.81842396 299.81042942 282.57884847 360.81069555 289 422 C289.11714355 423.07330566 289.23428711 424.14661133 289.35498047 425.25244141 C299.12632085 518.68271682 281.34750619 615.92648489 234 716 C233.52626953 716.95535645 233.05253906 717.91071289 232.56445312 718.89501953 C221.76550437 740.57809393 209.16471534 761.34669968 195 781 C194.46697266 781.74266113 193.93394531 782.48532227 193.38476562 783.25048828 C185.29675243 794.481022 176.87994551 805.3852768 168 816 C167.25435791 816.89428711 167.25435791 816.89428711 166.49365234 817.80664062 C155.18298737 831.32726419 143.0648132 844.0201874 130.625 856.5 C129.69768066 857.43199219 128.77036133 858.36398437 127.81494141 859.32421875 C122.70238666 864.42481323 117.48954725 869.31009972 112 874 C110.84318487 875.02132647 109.68819878 876.0447288 108.53515625 877.0703125 C100.05935901 884.55031273 91.30985902 891.55756697 82.25195312 898.31884766 C80.72206555 899.46095583 79.19480799 900.60659373 77.66992188 901.75537109 C66.73532239 909.99231939 55.64043855 917.79379126 44 925 C43.09572266 925.56299805 42.19144531 926.12599609 41.25976562 926.70605469 C25.24855346 936.63172619 8.85553819 945.59397297 -8 954 C-8.85754883 954.43006348 -9.71509766 954.86012695 -10.59863281 955.30322266 C-65.81042942 982.81842396 -126.81069555 998.57884847 -188 1005 C-189.07330566 1005.11714355 -190.14661133 1005.23428711 -191.25244141 1005.35498047 C-284.68271682 1015.12632085 -381.92648489 997.34750619 -482 950 C-483.43303467 949.2894043 -483.43303467 949.2894043 -484.89501953 948.56445312 C-506.57809393 937.76550437 -527.34669968 925.16471534 -547 911 C-547.74266113 910.46697266 -548.48532227 909.93394531 -549.25048828 909.38476562 C-560.481022 901.29675243 -571.3852768 892.87994551 -582 884 C-582.89428711 883.25435791 -582.89428711 883.25435791 -583.80664062 882.49365234 C-597.32726419 871.18298737 -610.0201874 859.0648132 -622.5 846.625 C-623.43199219 845.69768066 -624.36398437 844.77036133 -625.32421875 843.81494141 C-630.42481323 838.70238666 -635.31009972 833.48954725 -640 828 C-641.02132647 826.84318487 -642.0447288 825.68819878 -643.0703125 824.53515625 C-650.55031273 816.05935901 -657.55756697 807.30985902 -664.31884766 798.25195312 C-665.46095583 796.72206555 -666.60659373 795.19480799 -667.75537109 793.66992188 C-675.99231939 782.73532239 -683.79379126 771.64043855 -691 760 C-691.84449707 758.64358398 -691.84449707 758.64358398 -692.70605469 757.25976562 C-702.63172619 741.24855346 -711.59397297 724.85553819 -720 708 C-720.43006348 707.14245117 -720.86012695 706.28490234 -721.30322266 705.40136719 C-748.81842396 650.18957058 -764.57884847 589.18930445 -771 528 C-771.11714355 526.92669434 -771.23428711 525.85338867 -771.35498047 524.74755859 C-781.12632085 431.31728318 -763.34750619 334.07351511 -716 234 C-715.52626953 233.04464355 -715.05253906 232.08928711 -714.56445312 231.10498047 C-703.76550437 209.42190607 -691.16471534 188.65330032 -677 169 C-676.46697266 168.25733887 -675.93394531 167.51467773 -675.38476562 166.74951172 C-667.29675243 155.518978 -658.87994551 144.6147232 -650 134 C-649.50290527 133.40380859 -649.00581055 132.80761719 -648.49365234 132.19335938 C-637.18298737 118.67273581 -625.0648132 105.9798126 -612.625 93.5 C-611.69768066 92.56800781 -610.77036133 91.63601562 -609.81494141 90.67578125 C-604.70238666 85.57518677 -599.48954725 80.68990028 -594 76 C-592.84318487 74.97867353 -591.68819878 73.9552712 -590.53515625 72.9296875 C-582.05935901 65.44968727 -573.30985902 58.44243303 -564.25195312 51.68115234 C-562.72206555 50.53904417 -561.19480799 49.39340627 -559.66992188 48.24462891 C-548.73532239 40.00768061 -537.64043855 32.20620874 -526 25 C-525.09572266 24.43700195 -524.19144531 23.87400391 -523.25976562 23.29394531 C-507.24855346 13.36827381 -490.85553819 4.40602703 -474 -4 C-473.14245117 -4.43006348 -472.28490234 -4.86012695 -471.40136719 -5.30322266 C-416.18957058 -32.81842396 -355.18930445 -48.57884847 -294 -55 C-292.3900415 -55.17571533 -292.3900415 -55.17571533 -290.74755859 -55.35498047 C-197.31728318 -65.12632085 -100.07351511 -47.34750619 0 0 Z M-303.12768555 -20.00805664 C-305.56491459 -19.68718211 -308.00383062 -19.38291449 -310.44335938 -19.08007812 C-321.03380996 -17.72997058 -331.41938491 -15.81409963 -341.83627319 -13.48348999 C-343.83469817 -13.03693709 -345.83582297 -12.60251285 -347.8371582 -12.16918945 C-385.37326176 -4.00424419 -421.37753776 8.31699904 -456 25 C-456.96679688 25.45955078 -457.93359375 25.91910156 -458.9296875 26.39257812 C-480.88314993 36.85977938 -502.06786968 49.0451274 -522 63 C-522.57959473 63.40379883 -523.15918945 63.80759766 -523.75634766 64.22363281 C-550.35105437 82.79288925 -574.91486221 103.87327418 -597.875 126.75 C-599.21316772 128.08115845 -599.21316772 128.08115845 -600.57836914 129.43920898 C-605.59318506 134.46626191 -610.39301913 139.59836206 -615 145 C-615.9492374 146.08315735 -616.89970486 147.16523829 -617.8515625 148.24609375 C-625.65208425 157.18978343 -632.89857479 166.49511811 -640 176 C-640.48887695 176.65145996 -640.97775391 177.30291992 -641.48144531 177.97412109 C-660.29646658 203.09287989 -675.96662122 229.94236984 -690 258 C-690.41942871 258.82564453 -690.83885742 259.65128906 -691.27099609 260.50195312 C-706.53145175 290.62007676 -717.1019155 322.90711531 -725.3125 355.5625 C-725.52587006 356.40958527 -725.73924011 357.25667053 -725.95907593 358.12942505 C-729.88648173 373.80915816 -732.94902014 389.46190592 -735.0625 405.5 C-735.30323242 407.23636719 -735.30323242 407.23636719 -735.54882812 409.0078125 C-738.32920433 429.8662171 -739.32854162 450.57174874 -739.26074219 471.60913086 C-739.25000179 475.56184179 -739.26071921 479.5140994 -739.2734375 483.46679688 C-739.28630901 504.49474911 -737.8590665 525.0948913 -734.6875 545.875 C-734.58050781 546.58891907 -734.47351563 547.30283813 -734.36328125 548.03839111 C-730.32733965 574.90336931 -724.57803429 601.21338831 -716 627 C-715.5366626 628.41780762 -715.5366626 628.41780762 -715.06396484 629.86425781 C-700.41467634 674.54205827 -680.00673321 717.42553636 -653 756 C-652.59620117 756.57959473 -652.19240234 757.15918945 -651.77636719 757.75634766 C-633.20711075 784.35105437 -612.12672582 808.91486221 -589.25 831.875 C-588.36256104 832.76711182 -587.47512207 833.65922363 -586.56079102 834.57836914 C-581.53373809 839.59318506 -576.40163794 844.39301913 -571 849 C-569.91684265 849.9492374 -568.83476171 850.89970486 -567.75390625 851.8515625 C-558.81021657 859.65208425 -549.50488189 866.89857479 -540 874 C-539.34854004 874.48887695 -538.69708008 874.97775391 -538.02587891 875.48144531 C-512.90712011 894.29646658 -486.05763016 909.96662122 -458 924 C-457.17435547 924.41942871 -456.34871094 924.83885742 -455.49804688 925.27099609 C-444.68132766 930.75168493 -433.51827807 935.29620657 -422.25 939.75 C-421.55598083 940.02490265 -420.86196167 940.2998053 -420.14691162 940.58303833 C-407.41642866 945.60795124 -394.54663457 950.13133647 -381.375 953.875 C-380.51946533 954.11839111 -379.66393066 954.36178223 -378.7824707 954.61254883 C-356.26462705 960.90421173 -333.65200818 965.87700507 -310.5 969.0625 C-308.74828491 969.30649536 -308.74828491 969.30649536 -306.96118164 969.55541992 C-285.90924522 972.34728434 -264.97698349 973.37885819 -243.75 973.3125 C-242.53209778 973.31067719 -241.31419556 973.30885437 -240.05938721 973.30697632 C-209.13460894 973.22943833 -179.39471299 970.6669647 -149 965 C-147.0588377 964.65357816 -145.1174459 964.30843879 -143.17578125 963.96484375 C-101.89249162 956.54468124 -61.72490156 942.15486319 -24 924 C-23.09797852 923.57283691 -22.19595703 923.14567383 -21.26660156 922.70556641 C0.0737305 912.57644465 20.64645124 900.54979638 40 887 C40.86939209 886.39430176 40.86939209 886.39430176 41.75634766 885.77636719 C68.35105437 867.20711075 92.91486221 846.12672582 115.875 823.25 C116.76711182 822.36256104 117.65922363 821.47512207 118.57836914 820.56079102 C123.59318506 815.53373809 128.39301913 810.40163794 133 805 C133.9492374 803.91684265 134.89970486 802.83476171 135.8515625 801.75390625 C143.65208425 792.81021657 150.89857479 783.50488189 158 774 C158.73331543 773.02281006 158.73331543 773.02281006 159.48144531 772.02587891 C178.29647955 746.9071028 193.96636869 720.05783774 208 692 C208.38704102 691.23913086 208.77408203 690.47826172 209.17285156 689.69433594 C216.96284141 674.34500542 222.87129963 658.06492506 229 642 C229.57161865 640.50702393 229.57161865 640.50702393 230.15478516 638.98388672 C235.16924896 625.74639494 238.75381492 612.19676306 242.13842773 598.46142578 C242.7400102 596.0445269 243.3580389 593.63168835 243.98852539 591.22216797 C246.54111054 581.42820003 248.44334771 571.61288922 250.0625 561.625 C250.19006683 560.85084747 250.31763367 560.07669495 250.44906616 559.27908325 C252.7587962 545.23580218 254.64181881 531.1700184 256 517 C256.08259567 516.23645706 256.16519135 515.47291412 256.25028992 514.68623352 C257.00724913 507.25555043 257.16105836 499.89140777 257.16796875 492.42578125 C257.17129715 491.1443071 257.17462555 489.86283295 257.17805481 488.54252625 C257.18400337 485.83718017 257.18589959 483.13186581 257.18530273 480.42651367 C257.18522217 477.70704395 257.19205939 474.98774517 257.20581055 472.26831055 C257.29133621 455.07214274 256.85715327 438.10255914 255 421 C254.91958466 420.25245453 254.83916931 419.50490906 254.75631714 418.73471069 C254.27635781 414.37629983 253.72155191 410.03134222 253.125 405.6875 C252.86456909 403.77710938 252.86456909 403.77710938 252.59887695 401.828125 C251.31361467 392.6750597 249.73519407 383.67034108 247.62011719 374.67480469 C246.88887925 371.52069332 246.19942753 368.35834483 245.5078125 365.1953125 C237.41153656 328.70104355 225.23135912 293.6851637 209 260 C208.54044922 259.03320312 208.08089844 258.06640625 207.60742188 257.0703125 C197.14022062 235.11685007 184.9548726 213.93213032 171 194 C170.39430176 193.13060791 170.39430176 193.13060791 169.77636719 192.24365234 C151.20711075 165.64894563 130.12672582 141.08513779 107.25 118.125 C106.36256104 117.23288818 105.47512207 116.34077637 104.56079102 115.42163086 C99.53373809 110.40681494 94.40163794 105.60698087 89 101 C87.91684265 100.0507626 86.83476171 99.10029514 85.75390625 98.1484375 C76.81021657 90.34791575 67.50488189 83.10142521 58 76 C57.02281006 75.26668457 57.02281006 75.26668457 56.02587891 74.51855469 C30.9071028 55.70352045 4.05783774 40.03363131 -24 26 C-24.76086914 25.61295898 -25.52173828 25.22591797 -26.30566406 24.82714844 C-55.19401104 10.16592726 -87.02211657 -0.68847764 -118.42041016 -8.35839844 C-120.43990746 -8.86069249 -122.45420959 -9.38388347 -124.46630859 -9.91503906 C-134.60834626 -12.57041564 -144.77784075 -14.46656266 -155.125 -16.125 C-156.66806361 -16.37832909 -158.21103277 -16.63223423 -159.75390625 -16.88671875 C-186.93592796 -21.34603614 -213.47245874 -23.18898901 -241 -23.1875 C-242.08606537 -23.18840637 -243.17213074 -23.18931274 -244.29110718 -23.19024658 C-264.04456064 -23.18838314 -283.53172935 -22.60028071 -303.12768555 -20.00805664 Z " fill="#FE680D" transform="translate(773,57)"/>
<path d="M0 0 C3.57956532 1.71796305 6.48713617 3.80133107 9.625 6.25 C10.18421143 6.68473633 10.74342285 7.11947266 11.31958008 7.56738281 C12.55258411 8.52651591 13.7843797 9.48720398 15.01513672 10.44921875 C17.08143357 12.06362436 19.15158237 13.67297804 21.22265625 15.28125 C25.0404101 18.24657773 28.85530355 21.21556012 32.66943359 24.18554688 C36.44517266 27.12513338 40.22265535 30.06247715 44 33 C45.50000877 34.16665539 47.00000876 35.33332207 48.5 36.5 C49.2425 37.0775 49.985 37.655 50.75 38.25 C72.125 54.875 72.125 54.875 93.5 71.5 C94.6142334 72.36661255 94.6142334 72.36661255 95.75097656 73.25073242 C97.24775643 74.41491259 98.74450134 75.5791377 100.24121094 76.7434082 C104.04019058 79.69849173 107.83981465 82.65274014 111.640625 85.60546875 C120.78257161 92.70902136 129.90563028 99.83562514 139 107 C137.47666095 114.62074802 135.19599643 121.86859623 132.74609375 129.23828125 C132.3217001 130.52584118 131.89772382 131.81353875 131.47413635 133.10136414 C130.35851778 136.48988449 129.23792139 139.8767364 128.11602783 143.26318359 C126.35157953 148.59223964 124.59494188 153.92388073 122.8373909 159.25521469 C122.4015021 160.57733197 121.96548472 161.89940687 121.52933884 163.22143936 C118.32970034 172.92162117 115.1638653 182.63217269 112.03515625 192.35546875 C111.67135361 193.48471268 111.30755096 194.6139566 110.932724 195.77742004 C108.88346949 202.16444351 106.89865517 208.56656035 105 215 C104.67 215 104.34 215 104 215 C104.11743619 213.37443587 104.24449461 211.74956712 104.375 210.125 C104.44460938 209.22007812 104.51421875 208.31515625 104.5859375 207.3828125 C104.92582016 204.6060353 105.41961738 202.01015687 106.01953125 199.28515625 C107.12535197 193.93434619 107.24180041 188.75878975 107.3125 183.3125 C107.60967644 172.91044532 109.10064772 163.35965788 114.640625 154.32421875 C116.54163006 151.07393712 116.41047613 148.69428513 116 145 C115.10242444 142.85219923 115.10242444 142.85219923 113 142 C109.04506089 142 106.83745882 142.23643461 103.875 144.9375 C98.67688804 153.42774953 95.47651479 162.12793804 92.4987793 171.59960938 C91.07121659 176.08190215 89.70479073 180.09034794 87 184 C84.03863061 181.84627681 81.5804371 179.58457038 79.25 176.78515625 C73.84665154 170.54490883 67.93671133 164.78795579 62.09399414 158.96362305 C60.0673702 156.94235732 58.04614453 154.91580426 56.02539062 152.88867188 C49.85559737 146.71550502 43.7031173 140.60032289 37 135 C36.08992187 134.19691406 35.17984375 133.39382813 34.2421875 132.56640625 C33.46101562 131.90511719 32.67984375 131.24382812 31.875 130.5625 C31.08867188 129.88316406 30.30234375 129.20382812 29.4921875 128.50390625 C26.41149868 126.64486989 24.53941781 126.52116663 21 127 C20.443125 127.825 19.88625 128.65 19.3125 129.5 C17 132 17 132 14.37890625 132.26171875 C12.40462605 132.2129394 10.43085492 132.12042267 8.4609375 131.98046875 C5.81864372 131.71370779 5.81864372 131.71370779 4 134 C3.59952556 136.32275177 3.2602896 138.65739357 3 141 C-0.82989106 142.80230168 -3.78121808 143.19622241 -8 143 C-8.185625 141.329375 -8.185625 141.329375 -8.375 139.625 C-8.6465813 135.96896323 -8.6465813 135.96896323 -11 134 C-13.50484697 133.94766294 -13.50484697 133.94766294 -16.3125 134.1875 C-21.64981178 134.32631175 -21.64981178 134.32631175 -24.75 131.4375 C-25.4925 130.633125 -26.235 129.82875 -27 129 C-32.88137403 129.04918712 -35.95341089 131.08176787 -39.9375 135.125 C-40.90378161 136.06630291 -41.8712531 137.00638574 -42.83984375 137.9453125 C-43.59177002 138.68322021 -43.59177002 138.68322021 -44.35888672 139.43603516 C-46.8110226 141.77289657 -49.37832748 143.97168227 -51.93579102 146.19189453 C-65.13477519 157.75329923 -78.52987578 170.10984029 -89.32421875 183.98828125 C-89.87722656 184.65214844 -90.43023437 185.31601562 -91 186 C-91.66 186 -92.32 186 -93 186 C-95.7280286 179.11608101 -98.28809116 172.23177563 -100.5625 165.1875 C-104.14403112 154.15968645 -104.14403112 154.15968645 -111 145 C-114.50278106 143.92783361 -114.50278106 143.92783361 -118 144 C-119.485 144.99 -119.485 144.99 -121 146 C-121.90146348 152.31024439 -120.26047994 155.81406868 -117.3125 161.31640625 C-112.63913987 170.87175865 -112.61711918 180.61967557 -113 191 C-117.7010827 183.94837595 -119.54696188 175.25446718 -121.86254883 167.17529297 C-123.73554665 160.72377823 -125.85061837 154.3640713 -128 148 C-130.84147454 139.57632378 -133.53129892 131.13623016 -135.96484375 122.5859375 C-137.08230315 118.71488948 -138.3143845 114.89053798 -139.6171875 111.078125 C-140.11156017 108.39438763 -139.76165852 106.61879503 -139 104 C-137.47558594 102.40112305 -137.47558594 102.40112305 -135.484375 101.01171875 C-134.73865234 100.47869141 -133.99292969 99.94566406 -133.22460938 99.39648438 C-131.99967773 98.55053711 -131.99967773 98.55053711 -130.75 97.6875 C-129.00386194 96.44329364 -127.25911963 95.19712663 -125.515625 93.94921875 C-124.60619141 93.30259277 -123.69675781 92.6559668 -122.75976562 91.98974609 C-118.26915827 88.75209129 -113.88822304 85.3743922 -109.5 82 C-98.99064419 73.95610002 -88.34362101 66.10934593 -77.66601562 58.29101562 C-67.64383116 50.94811189 -57.70274282 43.51264001 -47.83642578 35.96142578 C-41.34792904 31.00385546 -34.79351672 26.14440588 -28.20581055 21.31982422 C-18.70483981 14.34437734 -9.35416287 7.17044822 0 0 Z " fill="#560A55" transform="translate(536,189)"/>
<path d="M0 0 C0.24337958 47.34294512 -0.58327861 94.6787725 -2 142 C-3.98 142 -5.96 142 -8 142 C-8.185625 140.329375 -8.185625 140.329375 -8.375 138.625 C-8.6465813 134.96896323 -8.6465813 134.96896323 -11 133 C-13.50484697 132.94766294 -13.50484697 132.94766294 -16.3125 133.1875 C-21.64981178 133.32631175 -21.64981178 133.32631175 -24.75 130.4375 C-25.4925 129.633125 -26.235 128.82875 -27 128 C-32.88137403 128.04918712 -35.95341089 130.08176787 -39.9375 134.125 C-40.90378161 135.06630291 -41.8712531 136.00638574 -42.83984375 136.9453125 C-43.59177002 137.68322021 -43.59177002 137.68322021 -44.35888672 138.43603516 C-46.8110226 140.77289657 -49.37832748 142.97168227 -51.93579102 145.19189453 C-65.13477519 156.75329923 -78.52987578 169.10984029 -89.32421875 182.98828125 C-89.87722656 183.65214844 -90.43023437 184.31601562 -91 185 C-91.66 185 -92.32 185 -93 185 C-95.7280286 178.11608101 -98.28809116 171.23177563 -100.5625 164.1875 C-104.14403112 153.15968645 -104.14403112 153.15968645 -111 144 C-114.50278106 142.92783361 -114.50278106 142.92783361 -118 143 C-119.485 143.99 -119.485 143.99 -121 145 C-121.90146348 151.31024439 -120.26047994 154.81406868 -117.3125 160.31640625 C-112.63913987 169.87175865 -112.61711918 179.61967557 -113 190 C-117.7010827 182.94837595 -119.54696188 174.25446718 -121.86254883 166.17529297 C-123.73554665 159.72377823 -125.85061837 153.3640713 -128 147 C-130.84147454 138.57632378 -133.53129892 130.13623016 -135.96484375 121.5859375 C-137.08230315 117.71488948 -138.3143845 113.89053798 -139.6171875 110.078125 C-140.11156017 107.39438763 -139.76165852 105.61879503 -139 103 C-137.47558594 101.40112305 -137.47558594 101.40112305 -135.484375 100.01171875 C-134.73865234 99.47869141 -133.99292969 98.94566406 -133.22460938 98.39648438 C-131.99967773 97.55053711 -131.99967773 97.55053711 -130.75 96.6875 C-129.00386194 95.44329364 -127.25911963 94.19712663 -125.515625 92.94921875 C-124.60619141 92.30259277 -123.69675781 91.6559668 -122.75976562 90.98974609 C-118.26915827 87.75209129 -113.88822304 84.3743922 -109.5 81 C-98.99064419 72.95610002 -88.34362101 65.10934593 -77.66601562 57.29101562 C-67.64464882 49.94871096 -57.70504645 42.51300729 -47.83862305 34.96362305 C-41.32256751 29.98598881 -34.74791377 25.0951818 -28.13330078 20.24951172 C-21.11698454 15.10519893 -14.16442953 9.8778339 -7.23217773 4.62084961 C-6.43110596 4.01635986 -5.63003418 3.41187012 -4.8046875 2.7890625 C-4.09296387 2.24975098 -3.38124023 1.71043945 -2.64794922 1.15478516 C-1 0 -1 0 0 0 Z " fill="#FE680E" transform="translate(536,190)"/>
<path d="M0 0 C4.25692034 0.13185151 6.86263889 3.34128775 9.75 6.125 C10.74376726 7.06618698 11.73857926 8.00627196 12.734375 8.9453125 C13.26289062 9.44635498 13.79140625 9.94739746 14.3359375 10.46362305 C16.01461612 12.01349461 17.74195603 13.48719955 19.484375 14.96484375 C26.15474856 20.76516858 32.27409389 27.16993063 38.5 33.4375 C39.81226585 34.75479059 41.12476395 36.07184986 42.4375 37.38867188 C45.62768506 40.5897861 48.81470651 43.79401865 52 47 C48.66666667 49.66666667 45.33333333 52.33333333 42 55 C42.33 55.99 42.66 56.98 43 58 C43.66 58.33 44.32 58.66 45 59 C45.20625 58.4225 45.4125 57.845 45.625 57.25 C47.55027866 54.09954401 49.77851354 52.73960269 53 51 C55.125 50.875 55.125 50.875 57 52 C58.36454252 53.97883842 59.70045307 55.9778834 61 58 C60.55269531 58.84820312 60.10539063 59.69640625 59.64453125 60.5703125 C55.36411875 68.87559048 51.92751877 77.1230076 49 86 C50.98 86.495 50.98 86.495 53 87 C53.10183594 86.17886719 53.20367188 85.35773438 53.30859375 84.51171875 C54.12395777 80.37040656 55.4756679 76.71066437 57.0625 72.8125 C57.32482422 72.12091797 57.58714844 71.42933594 57.85742188 70.71679688 C59.68849873 66.19903841 61.96180596 62.62406049 64.953125 58.76953125 C69.38575344 52.8677386 71.53855627 46.88047499 73.6875 39.875 C79.46518987 21.53481013 79.46518987 21.53481013 85 16 C87.625 15.875 87.625 15.875 90 16 C89.57386986 21.2556051 87.55399576 25.36833097 85.25390625 30.0234375 C82.44183804 36.69881436 81.81862658 42.62872845 81.75 49.75 C81.43351817 61.89428136 79.22411641 73.72018675 77.08300781 85.64746094 C76.94776199 86.41009247 76.81251617 87.172724 76.673172 87.95846558 C76.41778265 89.39160335 76.15686387 90.82377198 75.88920593 92.25466919 C73.9807878 102.91580515 76.32398067 110.07405964 82 119 C84.50471425 122.42220906 87.24648341 125.5970014 90.05859375 128.76953125 C92 131 92 131 92 132 C77.98588647 133.20634311 64.07449206 134.38269012 50 134 C50.12503906 133.39414062 50.25007812 132.78828125 50.37890625 132.1640625 C50.61853348 128.85006892 50.40061213 127.05133357 49 124 C44.61454159 120.25913787 39.15889026 117.83175187 34.09082031 115.15087891 C20.86264939 107.86951532 14.07562148 96.21337567 8.54296875 82.69921875 C6.116123 76.84061438 3.85971281 72.535849 -0.875 68.1875 C-10.79705699 58.70327987 -20.94693868 46.39226736 -27 34 C-27 32.68 -27 31.36 -27 30 C-22.6714271 30.47644713 -20.62810252 33.03871212 -17.6875 36.0625 C-16.95901855 36.80741699 -16.95901855 36.80741699 -16.21582031 37.56738281 C-12.89083869 40.99399178 -9.7160283 44.53145008 -6.6171875 48.1640625 C-4.40565946 50.67473443 -2.0256843 52.99178373 0.37109375 55.32421875 C1.95120203 56.94979778 3.31046517 58.6393536 4.6875 60.4375 C5.450625 61.283125 6.21375 62.12875 7 63 C8.32 63 9.64 63 11 63 C5.79412955 56.32176215 0.35083079 50.20487359 -5.68310547 44.28344727 C-9.11266233 40.91172906 -12.3768314 37.47208319 -15.46875 33.7890625 C-16.98712662 31.96967929 -16.98712662 31.96967929 -18.71875 30.2734375 C-22.56204879 26.30323734 -23.72464624 23.34509536 -24.08984375 17.8203125 C-24 16 -24 16 -23 15 C-17.39476397 15.28432357 -14.7411172 16.49142787 -10.75 20.375 C-10.01994751 21.07302734 -10.01994751 21.07302734 -9.27514648 21.78515625 C-5.8546359 25.0856398 -2.52586652 28.47990595 0.82421875 31.8515625 C1.66758789 32.69928223 2.51095703 33.54700195 3.37988281 34.42041016 C5.06425764 36.11925555 6.74218367 37.82452301 8.41308594 39.53662109 C9.19329102 40.32891113 9.97349609 41.12120117 10.77734375 41.9375 C11.81749634 43.00291016 11.81749634 43.00291016 12.87866211 44.08984375 C15.10744581 46.09674945 17.38540125 47.54297281 20 49 C17.39642791 44.07993299 14.60605802 40.17553264 10.60546875 36.27734375 C10.09502518 35.76877335 9.5845816 35.26020294 9.05867004 34.73622131 C7.98557859 33.6698036 6.90891967 32.60696457 5.82885742 31.54760742 C4.19516337 29.94501746 2.57232924 28.33205823 0.95117188 26.71679688 C-3.31367923 22.48591936 -7.55585783 18.28175493 -12.203125 14.46484375 C-15 12 -15 12 -15.9375 8.625 C-15.958125 7.75875 -15.97875 6.8925 -16 6 C-13.875 5.25 -13.875 5.25 -11 5 C-5.93577681 7.87020604 -2.14709004 11.64889607 1.875 15.8125 C6.13239022 20.14992471 10.40326012 24.34264823 15.046875 28.26953125 C19.22595552 31.97219659 23.08970603 36.01758995 27 40 C27.99 39.67 28.98 39.34 30 39 C24.82358407 32.81355169 19.44864572 27.05934924 13.3125 21.8125 C9.59160303 18.57693742 5.98721885 15.23387211 2.4375 11.8125 C1.88811768 11.30114502 1.33873535 10.78979004 0.77270508 10.26293945 C-0.75390625 8.76953125 -0.75390625 8.76953125 -3 6 C-2.95123013 2.89498516 -2.20961172 2.20961172 0 0 Z " fill="#FF6A10" transform="translate(559,319)"/>
<path d="M0 0 C1.75 0.8125 1.75 0.8125 2.75 1.8125 C3.125 4.0390625 3.125 4.0390625 2.75 6.8125 C0.625 9.4609375 0.625 9.4609375 -2.25 12.1875 C-2.75547363 12.67299316 -3.26094727 13.15848633 -3.78173828 13.65869141 C-7.09011007 16.81167157 -10.5137174 19.81555017 -13.9921875 22.77734375 C-19.29430856 27.55659128 -24.23849799 32.73224263 -29.25 37.8125 C-28.92 38.4725 -28.59 39.1325 -28.25 39.8125 C-24.7965583 38.33141127 -22.60078674 36.38428301 -19.984375 33.70703125 C-19.17613281 32.88783203 -18.36789062 32.06863281 -17.53515625 31.22460938 C-16.69855469 30.36673828 -15.86195313 29.50886719 -15 28.625 C-9.79998139 23.31477691 -4.60033689 18.11059098 1.04833984 13.27563477 C2.43242708 12.08555804 3.77565089 10.848082 5.10546875 9.59765625 C6.01232422 8.74494141 6.01232422 8.74494141 6.9375 7.875 C7.54980469 7.28847656 8.16210938 6.70195312 8.79296875 6.09765625 C11.25250417 4.48251223 12.8648269 4.56833164 15.75 4.8125 C16.5625 7 16.5625 7 16.75 9.8125 C15.13226239 11.58240294 13.50356923 13.18662291 11.75 14.8125 C10.67559091 15.86474359 9.60446305 16.92034493 8.53613281 17.97875977 C7.67063812 18.82972984 7.67063812 18.82972984 6.78765869 19.69789124 C4.19884698 22.24645867 1.61807276 24.80310256 -0.96240234 27.36010742 C-2.32531938 28.70783739 -3.69090197 30.0528769 -5.05908203 31.39526367 C-7.04126163 33.34112309 -9.01365214 35.29645314 -10.984375 37.25390625 C-11.59786804 37.85191544 -12.21136108 38.44992462 -12.84344482 39.0660553 C-13.40783264 39.63021652 -13.97222046 40.19437775 -14.55371094 40.77563477 C-15.05159119 41.26685318 -15.54947144 41.75807159 -16.06243896 42.26417542 C-17.44957646 44.07270485 -17.84279765 45.58880101 -18.25 47.8125 C-14.10970806 45.4769507 -11.25481487 42.8358899 -8.125 39.25 C-3.76919862 34.27089371 0.89294643 29.83757514 5.8203125 25.44140625 C7.67860184 23.77390128 9.51064285 22.07628146 11.3046875 20.33984375 C12.07039062 19.60894531 12.83609375 18.87804687 13.625 18.125 C14.28242187 17.48175781 14.93984375 16.83851563 15.6171875 16.17578125 C18.42885231 14.37858158 20.4801256 14.56562914 23.75 14.8125 C24.37077212 19.77867699 24.39536822 23.60123578 21.375 27.75 C17.90917752 31.87129717 14.03613106 35.61439925 10.19140625 39.37890625 C7.52627286 42.03551121 5.06077041 44.80151499 2.6171875 47.66015625 C-0.5779821 51.34329108 -3.90599392 54.90767165 -7.2109375 58.4921875 C-9.26577328 60.63196882 -9.26577328 60.63196882 -10.25 62.8125 C-6.37088471 63.25777316 -6.37088471 63.25777316 -4.57421875 61.30859375 C-3.76404297 60.28958984 -3.76404297 60.28958984 -2.9375 59.25 C-0.64253646 56.46570521 1.66357567 53.82917806 4.25 51.3125 C6.72173218 48.89042315 9.00865627 46.38658068 11.25 43.75 C14.46141373 40.01427382 17.93623381 36.92577852 21.75 33.8125 C23.75 36.8125 23.75 36.8125 23.73828125 39 C22.26134809 43.20312995 19.67445431 46.33329431 16.9375 49.8125 C16.36016113 50.55709473 15.78282227 51.30168945 15.18798828 52.06884766 C9.42956659 59.39817557 3.28450375 67.21340534 -3.9140625 73.1953125 C-6.10380354 75.84605165 -6.91609453 79.09731135 -8 82.3125 C-15.08427949 102.03587888 -27.61329075 112.15413207 -45.4375 121.96142578 C-47.25 122.8125 -47.25 122.8125 -49.25 122.8125 C-49.229375 124.070625 -49.20875 125.32875 -49.1875 126.625 C-49.14113917 129.45301087 -49.33307039 131.06171116 -50.25 133.8125 C-64.01259957 134.14908532 -77.55340807 133.11314871 -91.25 131.8125 C-89.80450107 128.7940269 -88.31990385 126.66917901 -86 124.25 C-81.80811228 119.58554039 -79.04799955 114.39117402 -76.25 108.8125 C-75.88946533 108.23201904 -75.52893066 107.65153809 -75.1574707 107.0534668 C-71.7073902 98.53361506 -76.08025146 85.48525856 -77.75 76.75 C-79.37409162 67.93624929 -80.58757953 59.40076572 -80.75 50.4375 C-80.9547026 40.28230151 -83.14405934 31.71087088 -87.9140625 22.65234375 C-89.25 19.8125 -89.25 19.8125 -89.25 15.8125 C-86.9375 15.5859375 -86.9375 15.5859375 -84.25 15.8125 C-78.4646198 21.06940797 -76.28634346 29.69248445 -73.90185547 36.86083984 C-69.87485383 49.4923208 -69.87485383 49.4923208 -62.83203125 60.55859375 C-60.56606081 63.78690225 -59.06696157 67.26579381 -57.5 70.875 C-57.20617432 71.54853516 -56.91234863 72.22207031 -56.60961914 72.91601562 C-54.81707834 77.15132753 -53.42916702 81.36750274 -52.25 85.8125 C-51.26 85.4825 -50.27 85.1525 -49.25 84.8125 C-51.1479151 77.58710394 -53.84493088 70.8347054 -56.84765625 64.01171875 C-58.03768644 61.2968588 -59.16803349 58.57177345 -60.25 55.8125 C-58 53.25 -58 53.25 -55.25 50.8125 C-51.34302609 51.18832114 -48.92050662 53.40562063 -45.93359375 55.75390625 C-44.15817724 57.07864611 -44.15817724 57.07864611 -41.25 56.8125 C-42.47053859 53.15088422 -43.61782304 52.64979526 -46.8125 50.625 C-47.63878906 50.09519531 -48.46507812 49.56539063 -49.31640625 49.01953125 C-49.95449219 48.62121094 -50.59257812 48.22289062 -51.25 47.8125 C-46.84908193 41.51611575 -41.84228322 36.13057338 -36.375 30.75 C-35.61058594 29.98623047 -34.84617187 29.22246094 -34.05859375 28.43554688 C-29.86296317 24.2719712 -25.5762238 20.27199074 -21.09863281 16.41381836 C-17.84875978 13.598721 -14.71321196 10.65949496 -11.56445312 7.73242188 C-2.92806469 -0.24400539 -2.92806469 -0.24400539 0 0 Z " fill="#570C56" transform="translate(507.25,321.1875)"/>
<path d="M0 0 C10.96721264 7.40174022 16.35302297 17.39401752 20.46875 29.79296875 C23.02963931 44.18147057 19.85450278 59.03816068 12.31640625 71.44140625 C5.17378142 81.32989864 -4.30954712 86.50176299 -16.15234375 88.921875 C-26.85572416 90.3267842 -36.34507855 86.88179196 -45.0234375 80.671875 C-54.31097498 73.03734877 -59.4227512 63.55855903 -62.15234375 51.921875 C-63.58405919 36.93152989 -62.53922736 22.51557522 -53.125 10.203125 C-39.02218038 -6.10587828 -19.07556737 -10.84734572 0 0 Z " fill="#DA7721" transform="translate(459.15234375,611.078125)"/>
<path d="M0 0 C47.89864865 0 47.89864865 0 57 9 C64.14585638 17.9459576 64.87906496 27.87644726 64 39 C62.41070446 47.56006647 58.7911147 54.41589983 52 60 C49.75 60.73828125 49.75 60.73828125 48 61 C50.93141255 66.39280959 53.87498467 71.7782608 56.84765625 77.1484375 C57.34547607 78.04916992 57.8432959 78.94990234 58.35620117 79.87792969 C59.36637631 81.70504602 60.37825073 83.53122392 61.3918457 85.35644531 C61.8580835 86.20045898 62.32432129 87.04447266 62.8046875 87.9140625 C63.22733887 88.6767041 63.64999023 89.4393457 64.08544922 90.22509766 C65 92 65 92 65 93 C60.05 93 55.1 93 50 93 C48.41561407 90.00055183 46.83246546 87.00046119 45.25 84 C44.8065625 83.16082031 44.363125 82.32164062 43.90625 81.45703125 C43.46796875 80.62558594 43.0296875 79.79414062 42.578125 78.9375 C42.18012695 78.18339844 41.78212891 77.42929687 41.37207031 76.65234375 C39.54487882 73.12020703 37.77846105 69.5569221 36 66 C28.41 65.67 20.82 65.34 13 65 C13 74.24 13 83.48 13 93 C8.71 93 4.42 93 0 93 C0 62.31 0 31.62 0 0 Z " fill="#DA761F" transform="translate(526,606)"/>
<path d="M0 0 C6.74831549 5.33452153 11.39901098 13.22749334 12.93359375 21.6796875 C13.79432305 34.92684935 12.60253143 46.74807453 4.40234375 57.73046875 C-1.50647669 64.23853277 -8.26045263 66.74551336 -16.97119141 67.20141602 C-25.75480652 67.37233931 -32.42182149 65.81220006 -39.0859375 59.8828125 C-43.37995888 55.36278999 -45.94503084 50.50014464 -48.06640625 44.6796875 C-48.47890625 43.6278125 -48.89140625 42.5759375 -49.31640625 41.4921875 C-51.51296737 30.32633515 -50.52321592 19.52082518 -44.94140625 9.5546875 C-40.70778519 3.28689416 -34.65702753 -2.68007925 -27.28515625 -4.91796875 C-17.55980527 -6.68154472 -8.39141704 -5.36162374 0 0 Z " fill="#580D57" transform="translate(286.06640625,518.3203125)"/>
<path d="M0 0 C4.62 0 9.24 0 14 0 C21.46796661 19.5167162 28.75730876 39.09641394 35.98413086 58.70361328 C36.33369339 59.65175903 36.68325592 60.59990479 37.04341125 61.57678223 C37.72832617 63.43493857 38.41281463 65.29325218 39.09684753 67.1517334 C40.66201351 71.39886081 42.23774885 75.64124094 43.84521484 79.87255859 C44.12805832 80.61841721 44.41090179 81.36427582 44.70231628 82.13273621 C45.22646059 83.51140024 45.75339283 84.88900891 46.28364563 86.26533508 C48 90.77989495 48 90.77989495 48 93 C43.38 93 38.76 93 34 93 C32.82713261 90.0648395 31.66150993 87.12715158 30.5 84.1875 C30.16613281 83.35412109 29.83226562 82.52074219 29.48828125 81.66210938 C29.17246094 80.85966797 28.85664062 80.05722656 28.53125 79.23046875 C28.23798828 78.49207764 27.94472656 77.75368652 27.64257812 76.99291992 C27 75 27 75 27 72 C13.47 72 -0.06 72 -14 72 C-14.33 73.65 -14.66 75.3 -15 77 C-15.43731488 78.34055251 -15.90683869 79.67108849 -16.41015625 80.98828125 C-16.67763672 81.69404297 -16.94511719 82.39980469 -17.22070312 83.12695312 C-17.49849609 83.84818359 -17.77628906 84.56941406 -18.0625 85.3125 C-18.34416016 86.05306641 -18.62582031 86.79363281 -18.91601562 87.55664062 C-19.60718575 89.37242655 -20.30311689 91.18639899 -21 93 C-25.62 93 -30.24 93 -35 93 C-29.28403137 76.28762102 -23.13405795 59.74063875 -16.95556641 43.1953125 C-15.52082187 39.35281681 -14.09105954 35.50848729 -12.66249466 31.66369057 C-11.54954005 28.67048183 -10.43351542 25.67842479 -9.31661224 22.68668747 C-8.78771326 21.26859166 -8.25986517 19.85010341 -7.73313141 18.43120193 C-7.00008636 16.45764541 -6.26278168 14.48573045 -5.52441406 12.51416016 C-5.10806702 11.39756012 -4.69171997 10.28096008 -4.26275635 9.13052368 C-3.00626473 6.01553102 -1.50212852 3.00425704 0 0 Z " fill="#DA7720" transform="translate(664,606)"/>
<path d="M0 0 C18.81 0 37.62 0 57 0 C57 4.62 57 9.24 57 14 C42.81 14 28.62 14 14 14 C14 22.25 14 30.5 14 39 C26.54 39 39.08 39 52 39 C52 43.62 52 48.24 52 53 C39.46 53 26.92 53 14 53 C14 61.58 14 70.16 14 79 C28.52 79 43.04 79 58 79 C58 83.62 58 88.24 58 93 C38.86 93 19.72 93 0 93 C0 62.31 0 31.62 0 0 Z " fill="#DA7822" transform="translate(846,606)"/>
<path d="M0 0 C4.29 0 8.58 0 13 0 C13 13.2 13 26.4 13 40 C26.86 40 40.72 40 55 40 C55 26.8 55 13.6 55 0 C59.29 0 63.58 0 68 0 C68 30.69 68 61.38 68 93 C63.71 93 59.42 93 55 93 C55 80.13 55 67.26 55 54 C41.14 54 27.28 54 13 54 C13 66.87 13 79.74 13 93 C8.71 93 4.42 93 0 93 C0 62.31 0 31.62 0 0 Z " fill="#DA751E" transform="translate(282,606)"/>
<path d="M0 0 C18.48 0 36.96 0 56 0 C56 4.62 56 9.24 56 14 C41.81 14 27.62 14 13 14 C13 22.58 13 31.16 13 40 C25.87 40 38.74 40 52 40 C52 44.62 52 49.24 52 54 C39.13 54 26.26 54 13 54 C13 62.58 13 71.16 13 80 C27.52 80 42.04 80 57 80 C57 84.62 57 89.24 57 94 C38.19 94 19.38 94 0 94 C0 62.98 0 31.96 0 0 Z " fill="#560B55" transform="translate(474,491)"/>
<path d="M0 0 C6.9150745 4.56394917 11.52833039 12.13354468 14 20 C15.54612723 32.42366265 13.97260592 43.72402543 6.3125 53.9375 C0.52021838 59.92041368 -5.87039909 62.29736293 -14.125 62.5625 C-22.87557767 62.20223786 -28.41203427 59.46734126 -34.39453125 53.12890625 C-41.22200272 44.07544651 -42.74383361 34.03353188 -42 23 C-40.3390358 13.18905044 -35.21599762 6.58591643 -27.80859375 0.2265625 C-19.66331727 -5.2974479 -8.45380929 -4.30106087 0 0 Z " fill="#FDFCFC" transform="translate(452,623)"/>
<path d="M0 0 C9.32062745 4.92442657 12.93770846 11.34284757 16.375 21 C17.3891123 27.36124987 17.0625 33.87092227 17.0625 40.3125 C1.8825 40.3125 -13.2975 40.3125 -28.9375 40.3125 C-24.52757421 51.09059978 -24.52757421 51.09059978 -15.9375 57.3125 C-7.30801831 58.72060405 -1.38800823 56.42785576 5.5625 51.5625 C6.0575 51.15 6.5525 50.7375 7.0625 50.3125 C8.09840338 51.38143218 9.11583942 52.46828488 10.125 53.5625 C10.69347656 54.16578125 11.26195312 54.7690625 11.84765625 55.390625 C13.0625 57.3125 13.0625 57.3125 12.90625 59.390625 C10.72469547 64.35972142 4.96797967 67.18900708 0.28540039 69.47460938 C-3.44865967 70.8821101 -6.98716199 70.89339429 -10.9375 70.8125 C-12.07058594 70.83570313 -12.07058594 70.83570313 -13.2265625 70.859375 C-21.54855542 70.80217917 -28.09257221 67.15742779 -33.9375 61.3125 C-35.91007014 58.43770318 -37.46197222 55.46761792 -38.9375 52.3125 C-39.25976562 51.66925781 -39.58203125 51.02601563 -39.9140625 50.36328125 C-43.98423384 40.68235969 -43.30748703 27.90721576 -39.875 18.1875 C-35.71223075 8.99471791 -30.4102172 3.60569711 -21.19140625 -0.6171875 C-14.07869278 -2.95678353 -6.94854043 -2.83304585 0 0 Z " fill="#580D57" transform="translate(890.9375,514.6875)"/>
<path d="M0 0 C5.03263292 4.26679748 7.95811638 8.48278873 9 15 C9.08326173 16.80943446 9.11784841 18.62151738 9.11352539 20.43286133 C9.11344986 21.49358353 9.11337433 22.55430573 9.11329651 23.64717102 C9.10813522 24.7806749 9.10297394 25.91417877 9.09765625 27.08203125 C9.0962413 28.25134689 9.09482635 29.42066254 9.09336853 30.62541199 C9.08777793 34.35446751 9.07522709 38.08346267 9.0625 41.8125 C9.05748379 44.34309809 9.05292109 46.87369712 9.04882812 49.40429688 C9.03781156 55.60288779 9.02055332 61.80143366 9 68 C4.71 68 0.42 68 -4 68 C-4.33 66.02 -4.66 64.04 -5 62 C-5.60328125 62.42152344 -6.2065625 62.84304688 -6.828125 63.27734375 C-8.02695312 64.09912109 -8.02695312 64.09912109 -9.25 64.9375 C-10.03890625 65.48277344 -10.8278125 66.02804687 -11.640625 66.58984375 C-16.67466731 69.59860082 -22.2729635 69.72815178 -28 69 C-33.79749628 67.00400485 -38.82620403 64.42190145 -42 59 C-44.72000753 52.07092971 -45.47985124 43.92723196 -43.3125 36.7109375 C-40.70908431 31.78614282 -36.58342895 28.20421124 -31.578125 25.87109375 C-26.26366333 24.57728922 -21.07128727 24.79160573 -15.625 24.875 C-13.94857422 24.88853516 -13.94857422 24.88853516 -12.23828125 24.90234375 C-9.49196538 24.92581654 -6.74609528 24.95865272 -4 25 C-4.28271115 23.38512532 -4.57650226 21.77218756 -4.875 20.16015625 C-5.03742188 19.26176025 -5.19984375 18.36336426 -5.3671875 17.43774414 C-6.17206543 14.33716307 -7.41380168 12.85883004 -10 11 C-14.44618396 8.77690802 -20.17856057 9.47533019 -25 10 C-27.65385679 11.11047908 -29.83951077 12.36373486 -32.1953125 14.00390625 C-32.79085938 14.33261719 -33.38640625 14.66132812 -34 15 C-37 14 -37 14 -38.16796875 11.93359375 C-38.50441406 11.10988281 -38.84085937 10.28617188 -39.1875 9.4375 C-39.70376953 8.19806641 -39.70376953 8.19806641 -40.23046875 6.93359375 C-40.48441406 6.29550781 -40.73835938 5.65742187 -41 5 C-28.88578893 -3.66502598 -13.80910077 -9.24609356 0 0 Z " fill="#580E57" transform="translate(413,517)"/>
<path d="M0 0 C8.07783584 4.87045985 10.93468554 11.34702538 13.859375 20.12109375 C13.859375 26.39109375 13.859375 32.66109375 13.859375 39.12109375 C-0.990625 39.12109375 -15.840625 39.12109375 -31.140625 39.12109375 C-27.80961347 47.44862256 -25.87730258 52.25275496 -18.140625 56.12109375 C-9.35711893 57.02310363 -3.75085299 55.34825334 3.359375 50.37109375 C3.854375 49.95859375 4.349375 49.54609375 4.859375 49.12109375 C5.89527838 50.19002593 6.91271442 51.27687863 7.921875 52.37109375 C8.49035156 52.974375 9.05882812 53.57765625 9.64453125 54.19921875 C10.859375 56.12109375 10.859375 56.12109375 10.765625 58.1640625 C8.52227344 63.00854152 2.87163047 65.57881403 -1.640625 67.99609375 C-9.58185284 70.60131869 -20.09366721 70.57040387 -27.703125 67.12109375 C-35.42267678 62.50233672 -40.41721072 55.64274488 -43.140625 47.12109375 C-45.75555769 34.7133259 -45.346325 21.9307399 -38.8203125 10.88671875 C-29.98630725 -1.95396648 -14.37811377 -7.58261839 0 0 Z " fill="#570D56" transform="translate(691.140625,515.87890625)"/>
<path d="M0 0 C3.46477039 2.3811385 6.16725334 4.72478068 8.84765625 7.95703125 C7.29063694 12.62808917 4.76318252 16.0440881 1.84765625 19.95703125 C1.44675781 19.5703125 1.04585937 19.18359375 0.6328125 18.78515625 C-7.11458636 11.68776591 -14.10634114 9.10602793 -24.7109375 9.44921875 C-31.93950795 10.51586365 -37.05691441 14.2240551 -41.58984375 19.83203125 C-46.23034847 26.23177209 -47.69641857 33.05956278 -47.58984375 40.83203125 C-47.57630859 42.01720337 -47.57630859 42.01720337 -47.5625 43.22631836 C-47.27038798 53.09422749 -44.21317108 59.88220663 -37.34765625 67.0390625 C-31.65969255 72.00844004 -25.5722251 73.75508598 -18.0625 73.48046875 C-10.45953148 72.11295495 -3.98906128 67.83864955 1.84765625 62.95703125 C3.0504232 64.36075927 4.23446144 65.78055222 5.41015625 67.20703125 C6.07144531 67.9959375 6.73273438 68.78484375 7.4140625 69.59765625 C8.84765625 71.95703125 8.84765625 71.95703125 8.81640625 74.03515625 C5.11760389 81.37310287 -5.14466103 85.44469815 -12.46484375 88.20703125 C-23.7759213 90.5075894 -33.14874528 88.2575686 -42.90234375 82.20703125 C-51.1678992 76.28830315 -55.42441614 69.29779368 -59.15234375 59.95703125 C-59.50683594 59.14621094 -59.86132812 58.33539062 -60.2265625 57.5 C-64.08130003 46.91167032 -63.46304117 33.08180483 -59.421875 22.671875 C-53.64698217 10.32248879 -46.19266395 1.16748811 -33.3671875 -4.2109375 C-21.71180401 -7.22745838 -10.36429073 -5.95189093 0 0 Z " fill="#DA7822" transform="translate(227.15234375,611.04296875)"/>
<path d="M0 0 C4.95 0 9.9 0 15 0 C15.82407349 2.56309937 15.82407349 2.56309937 16.66479492 5.17797852 C18.50014443 10.88578126 20.33623848 16.59334407 22.17281628 22.30075169 C23.2840018 25.75399729 24.39490772 29.20733227 25.50512695 32.66088867 C26.58077037 36.00685209 27.65721042 39.35255833 28.73415565 42.69810295 C29.33552259 44.5669212 29.93610815 46.43599084 30.53666687 48.30506897 C33.30101445 56.88938483 36.13395471 65.44924066 39 74 C39.18268433 73.42689087 39.36536865 72.85378174 39.55358887 72.26330566 C41.49933511 66.16028589 43.44732835 60.05798629 45.39648438 53.95605469 C46.1183858 51.69516164 46.8397613 49.43410059 47.56054688 47.17285156 C52.58643755 31.4072783 57.72898337 15.68535366 63 0 C67.62 0 72.24 0 77 0 C74.91789289 7.92191403 72.51895909 15.66205266 69.8671875 23.41015625 C69.47105255 24.57590683 69.0749176 25.74165741 68.66677856 26.94273376 C67.40593771 30.65038104 66.14047476 34.35643215 64.875 38.0625 C64.04919163 40.49013658 63.22366871 42.91787029 62.3984375 45.34570312 C59.94182036 52.56707503 57.47225815 59.78397068 55 67 C54.56833474 68.26240849 54.13673545 69.52483954 53.7052002 70.78729248 C52.45509302 74.44132947 51.20084891 78.0939192 49.9453125 81.74609375 C49.562612 82.86597183 49.1799115 83.98584991 48.78561401 85.1396637 C48.25775803 86.67045815 48.25775803 86.67045815 47.71923828 88.23217773 C47.41027618 89.13201889 47.10131409 90.03186005 46.7829895 90.95896912 C46 93 46 93 45 94 C42.64686445 94.07271741 40.29166332 94.08370868 37.9375 94.0625 C36.00197266 94.04896484 36.00197266 94.04896484 34.02734375 94.03515625 C33.02832031 94.02355469 32.02929688 94.01195312 31 94 C30.3359375 92.0078125 29.671875 90.015625 29.0078125 88.0234375 C28.79017746 87.3705777 28.57254242 86.7177179 28.34831238 86.04507446 C27.08372373 82.25150077 25.81938356 78.45784449 24.55541992 74.6640625 C21.52907699 65.58152577 18.49947917 56.5000885 15.46484375 47.4203186 C13.82166245 42.50324644 12.17966639 37.58577886 10.53778076 32.66827393 C9.72081265 30.22241586 8.90330757 27.77673708 8.08526611 25.33123779 C6.92656422 21.86711565 5.76972939 18.40237507 4.61328125 14.9375 C4.08748726 13.36785995 4.08748726 13.36785995 3.55107117 11.76651001 C3.2291127 10.80071014 2.90715424 9.83491028 2.57543945 8.83984375 C2.29408646 7.99800537 2.01273346 7.15616699 1.72285461 6.28881836 C1.06828387 4.21621134 0.52715455 2.10861822 0 0 Z " fill="#580E57" transform="translate(161,491)"/>
<path d="M0 0 C6.28532658 3.52221199 9.40085332 9.45255996 11.625 16.125 C11.71299471 17.88908128 11.74264257 19.65633766 11.73852539 21.42260742 C11.73844986 22.50350143 11.73837433 23.58439545 11.73829651 24.69804382 C11.73313522 25.86374405 11.72797394 27.02944427 11.72265625 28.23046875 C11.7212413 29.42481033 11.71982635 30.61915192 11.71836853 31.84968567 C11.7127635 35.67064908 11.70021011 39.49155425 11.6875 43.3125 C11.68248565 45.90038978 11.67792263 48.48828048 11.67382812 51.07617188 C11.66279242 57.42580375 11.64552437 63.77539199 11.625 70.125 C7.335 70.125 3.045 70.125 -1.375 70.125 C-1.38901855 68.04433228 -1.38901855 68.04433228 -1.40332031 65.92163086 C-1.44330354 60.75708337 -1.50908633 55.59312634 -1.58251953 50.42895508 C-1.61068072 48.19726162 -1.6319193 45.96546932 -1.64599609 43.73364258 C-1.66749228 40.51853001 -1.71417863 37.3045998 -1.765625 34.08984375 C-1.76685364 33.09790512 -1.76808228 32.10596649 -1.76934814 31.08396912 C-1.89864217 24.91750927 -2.75721884 21.16918908 -6.375 16.125 C-10.07143271 13.41478457 -14.16666948 13.59454278 -18.61328125 13.68359375 C-22.30278747 14.27328852 -24.23482239 15.63568616 -26.9375 18.12890625 C-31.34683974 24.2516579 -31.83496815 29.88995156 -31.88671875 37.21484375 C-31.90466995 38.15936905 -31.92262115 39.10389435 -31.94111633 40.07704163 C-31.99498156 43.07215 -32.02903858 46.06710119 -32.0625 49.0625 C-32.09569407 51.1022353 -32.13018565 53.14194992 -32.16601562 55.18164062 C-32.25069435 60.16264657 -32.31761872 65.14360783 -32.375 70.125 C-36.665 70.125 -40.955 70.125 -45.375 70.125 C-45.375 46.695 -45.375 23.265 -45.375 -0.875 C-41.085 -0.875 -36.795 -0.875 -32.375 -0.875 C-32.045 2.425 -31.715 5.725 -31.375 9.125 C-30.55 8.0525 -29.725 6.98 -28.875 5.875 C-21.2724735 -2.84138504 -10.65795653 -4.51037016 0 0 Z " fill="#570D56" transform="translate(764.375,514.875)"/>
<path d="M0 0 C0.99 0.66 1.98 1.32 3 2 C2.45660208 6.56454251 1.20536179 9.9728176 -1 14 C-1.66 13.731875 -2.32 13.46375 -3 13.1875 C-3.99 12.795625 -4.98 12.40375 -6 12 C-6.60457031 11.73574219 -7.20914063 11.47148438 -7.83203125 11.19921875 C-12.79283465 9.13466349 -16.62192347 8.46219235 -22 9 C-24.57951684 9.93243871 -24.57951684 9.93243871 -26 12 C-26.66680368 14.95720628 -26.66680368 14.95720628 -26 18 C-22.29755357 22.85346605 -16.8918062 24.23229806 -11.375 26.26757812 C-4.22715019 29.02695124 1.09560588 32.56126766 4.30078125 39.76953125 C6.24625692 45.97548994 5.58964621 51.40459526 3 57.3125 C-0.24256558 63.20470488 -4.74726484 65.91575495 -11 68 C-23.27859531 68.76557189 -32.19712589 67.71715622 -42 60 C-41.52546847 55.15977839 -40.62064422 52.06797052 -38 48 C-37.31292969 48.42152344 -36.62585938 48.84304688 -35.91796875 49.27734375 C-35.01691406 49.82519531 -34.11585938 50.37304688 -33.1875 50.9375 C-31.84751953 51.75541016 -31.84751953 51.75541016 -30.48046875 52.58984375 C-26.40528129 54.90660386 -23.12977232 55.21343956 -18.5 55.3125 C-16.78296875 55.36857422 -16.78296875 55.36857422 -15.03125 55.42578125 C-11.9377551 55.2921118 -11.9377551 55.2921118 -10.11328125 53.1953125 C-8.77695173 50.89548241 -8.77695173 50.89548241 -8.6875 47.5625 C-10.16480541 43.55267102 -10.56141809 43.307077 -14.1875 41.5 C-16.11631732 40.64676237 -18.05501754 39.81571682 -20 39 C-35.57415596 32.15885774 -35.57415596 32.15885774 -38.359375 26.5 C-40.17312924 19.42193468 -40.64234045 10.98257528 -37.125 4.375 C-27.74758805 -7.65540525 -12.4233841 -5.32708489 0 0 Z " fill="#580E57" transform="translate(582,517)"/>
<path d="M0 0 C0.99 0.66 1.98 1.32 3 2 C2.45660208 6.56454251 1.20536179 9.9728176 -1 14 C-1.66 13.731875 -2.32 13.46375 -3 13.1875 C-3.99 12.795625 -4.98 12.40375 -6 12 C-6.60457031 11.73574219 -7.20914063 11.47148438 -7.83203125 11.19921875 C-12.79283465 9.13466349 -16.62192347 8.46219235 -22 9 C-24.59869315 9.86424561 -24.59869315 9.86424561 -26 12 C-26.83345815 15.45704496 -26.83345815 15.45704496 -26 19 C-21.31932159 22.71324336 -16.12500907 24.65226951 -10.56640625 26.62304688 C-4.89625028 28.75080479 -0.9490112 31.51531976 2.84765625 36.35546875 C5.44838218 42.32391435 4.88731778 50.3112135 3.37890625 56.58203125 C1.09318177 61.89507082 -2.88952809 64.55494876 -8 67 C-15.46274474 69.48758158 -25.67573112 68.94569612 -32.9921875 66.06640625 C-36.67144597 64.11224757 -39.77940402 61.63503307 -43 59 C-41.68 55.37 -40.36 51.74 -39 48 C-36.91903129 49.04048436 -34.84070036 50.09523348 -32.84375 51.2890625 C-26.37563187 54.97588983 -20.42274331 56.30605454 -13 55 C-10.65892432 53.76873807 -10.65892432 53.76873807 -9 52 C-8.33319632 49.04279372 -8.33319632 49.04279372 -9 46 C-12.3366104 41.60133854 -16.98850792 40.03524815 -21.9375 38 C-29.7607349 34.76715394 -35.56494884 32.24412279 -39 24 C-41.18515644 18.04048244 -40.51786999 12.4819321 -38 6.8125 C-30.2060628 -7.6619548 -13.03355978 -5.58872516 0 0 Z " fill="#580E57" transform="translate(635,517)"/>
<path d="M0 0 C4.62 0 9.24 0 14 0 C14 26.07 14 52.14 14 79 C25.22 79 36.44 79 48 79 C48 83.62 48 88.24 48 93 C32.16 93 16.32 93 0 93 C0 62.31 0 31.62 0 0 Z " fill="#DB7925" transform="translate(754,606)"/>
<path d="M0 0 C1.36886951 1.29682374 2.7169291 2.61823134 4 4 C2.34832443 7.5786304 0.21713508 10.74820188 -2 14 C-3.96093574 13.04533391 -5.8663967 12.08319842 -7.71875 10.9296875 C-13.60471084 7.44457911 -19.27927968 7.08181708 -26 8 C-31.48131365 10.44701502 -33.48108341 13.7755804 -36 19 C-38.41177808 26.47813068 -38.17278721 35.5220737 -34.875 42.625 C-32.48401333 46.66311082 -30.45350077 49.1856108 -26 51 C-16.22247072 52.25732222 -9.84829196 49.5512309 -2 44 C-0.96409662 45.06893218 0.05333942 46.15578488 1.0625 47.25 C1.63097656 47.85328125 2.19945312 48.4565625 2.78515625 49.078125 C4 51 4 51 3.90625 53.01171875 C1.66077186 57.93822036 -3.72789868 61.71103886 -8.5625 63.9375 C-16.23690799 66.38419245 -26.84614689 66.56300494 -34.234375 63.09375 C-43.91352114 57.09781876 -48.39726238 48.94513682 -51 38 C-52.34245994 25.85985304 -51.4889776 14.94036565 -44.390625 4.671875 C-40.15173678 -0.57812418 -35.04857125 -4.61496247 -28.625 -6.8125 C-17.97746854 -7.57303796 -8.705074 -6.839701 0 0 Z " fill="#580D57" transform="translate(358,520)"/>
<path d="M0 0 C2.40365601 1.88858687 4.54641589 3.82402481 6.625 6.0625 C4.97332443 9.6411304 2.84213508 12.81070188 0.625 16.0625 C-1.33593574 15.10783391 -3.2413967 14.14569842 -5.09375 12.9921875 C-10.96711865 9.51453501 -16.66854337 9.02931824 -23.375 10.0625 C-27.99465944 11.78144305 -30.53098956 14.77578661 -32.8125 19.0625 C-35.8930964 27.02955965 -35.42688882 36.27829666 -32.36328125 44.19140625 C-30.22851288 48.23312186 -27.10216822 50.57772118 -23.375 53.0625 C-15.05291936 54.09771843 -8.13624507 52.80507453 -1.375 47.875 C-0.715 47.276875 -0.055 46.67875 0.625 46.0625 C2.935 48.7025 5.245 51.3425 7.625 54.0625 C2.85992969 60.13796464 -2.45323355 65.6775758 -10.375 67.0625 C-21.19529262 67.89850495 -29.77713215 67.70323034 -38.39453125 60.3359375 C-46.84337177 51.69143962 -48.66803017 39.92147108 -48.69189453 28.296875 C-48.51188402 18.5185263 -45.15699768 10.17115353 -38.375 3.0625 C-27.06753189 -7.09160636 -13.08071762 -7.50930085 0 0 Z " fill="#580D57" transform="translate(836.375,517.9375)"/>
<path d="M0 0 C6.45133537 2.45655831 10.03628772 6.91993789 13 13 C15.65802502 20.97407505 14.67701751 30.48882747 11 38 C8.49229733 41.84514409 6.07183998 43.92664442 2 46 C-3.26937726 46.93108075 -8.59744857 47.17861014 -13.484375 44.78125 C-19.49250377 39.99281655 -22.34403325 33.7830909 -23.375 26.265625 C-23.67589601 19.60830075 -22.51189136 13.71409948 -19 8 C-13.23937129 1.7498317 -8.57634889 -1.17822045 0 0 Z " fill="#FBF9FB" transform="translate(272,526)"/>
<path d="M0 0 C4.29 0 8.58 0 13 0 C13 33 13 66 13 100 C8.71 100 4.42 100 0 100 C0 67 0 34 0 0 Z " fill="#550A54" transform="translate(440,485)"/>
<path d="M0 0 C3.795 -0.061875 7.59 -0.12375 11.5 -0.1875 C13.27020508 -0.22846802 13.27020508 -0.22846802 15.07617188 -0.27026367 C21.67772539 -0.32208208 28.42649235 -0.34366575 33.55249023 4.45263672 C38.37069474 10.05306691 38.413423 14.21583225 38.33203125 21.4375 C37.85885077 26.51444819 36.58542273 29.43255317 33 33 C26.17615049 37.46834424 19.3514393 37.49610255 11.4375 37.25 C7.663125 37.1675 3.88875 37.085 0 37 C0 24.79 0 12.58 0 0 Z " fill="#FDFBF9" transform="translate(539,620)"/>
<path d="M0 0 C0.99 0 1.98 0 3 0 C5.46185029 4.37224612 5.65650388 8.07216841 5 13 C3.20713006 18.42706577 0.26682206 22.194456 -4 26 C-5.96822886 27.96822886 -5.66248381 31.34808709 -6 34 C-5.236875 34.2475 -4.47375 34.495 -3.6875 34.75 C-0.59025066 36.19058109 0.47511304 36.95022608 2 40 C2.47221936 43.58591577 2.34390286 46.84323583 1.3125 50.3125 C-0.46889641 52.60286681 -2.42227018 53.71113509 -5 55 C-5.66 55 -6.32 55 -7 55 C-6.95359375 55.81984375 -6.9071875 56.6396875 -6.859375 57.484375 C-6.80523437 59.10085938 -6.80523437 59.10085938 -6.75 60.75 C-6.70359375 61.81734375 -6.6571875 62.8846875 -6.609375 63.984375 C-7 67 -7 67 -8.765625 69.359375 C-11.75326409 71.55309601 -13.49622245 71.58432397 -17.08984375 71.3828125 C-19 71 -19 71 -21.5625 69.375 C-23 67 -23 67 -22.875 63.875 C-22 61 -22 61 -20 59 C-15.44444444 59.55555556 -15.44444444 59.55555556 -14 61 C-13.75 63.375 -13.75 63.375 -14 66 C-15.5 67.8125 -15.5 67.8125 -17 69 C-13.18186553 68.72459296 -13.18186553 68.72459296 -10 67 C-9.76572222 64.98405418 -9.58663876 62.961526 -9.4375 60.9375 C-9.35371094 59.83277344 -9.26992188 58.72804688 -9.18359375 57.58984375 C-9.12300781 56.73519531 -9.06242187 55.88054687 -9 55 C-10.03125 54.979375 -11.0625 54.95875 -12.125 54.9375 C-17.22656395 53.70325066 -19.10273933 51.20977809 -22 47 C-23.77737426 43.44525148 -23.61540413 39.87342598 -23 36 C-20.60491424 30.42365529 -17.44907328 27.05836913 -12.1875 24.125 C-9.81315226 22.81447561 -9.81315226 22.81447561 -8 21 C-7.3093687 18.18535167 -7.25020556 15.65513478 -7.23046875 12.76171875 C-6.79273251 7.5163031 -3.62627687 3.62627687 0 0 Z " fill="#190A01" transform="translate(505,242)"/>
<path d="M0 0 C4.88765533 1.35768204 6.52591098 3.67034421 9 8 C10.95464967 13.863949 10.29310745 20.49546536 9.4375 26.5625 C8.69466488 29.85312994 8.69466488 29.85312994 10 32 C11.95659633 32.50217353 11.95659633 32.50217353 14.25 32.8125 C18.85685186 33.78236355 21.31675507 34.93185447 24 39 C24.78249836 43.73661243 24.68882384 46.96676424 22 51 C22.26901621 53.62290801 22.72606035 55.53269119 24.0625 57.8125 C25.57087036 61.33203085 25.30310939 64.18082164 25 68 C23.765625 69.7265625 23.765625 69.7265625 22 71 C19.80859375 71.36328125 19.80859375 71.36328125 17.4375 71.3125 C16.65246094 71.30863281 15.86742187 71.30476563 15.05859375 71.30078125 C13 71 13 71 11 69 C10.75 66 10.75 66 11 63 C11.66 62.34 12.32 61.68 13 61 C15.625 61.375 15.625 61.375 18 62 C18.625 64.3125 18.625 64.3125 19 67 C18.34 67.99 17.68 68.98 17 70 C19.97 69.01 19.97 69.01 23 68 C22.58846263 63.02906176 22.20399168 58.55491614 20 54 C19.43023438 54.15855469 18.86046875 54.31710937 18.2734375 54.48046875 C12.97668949 55.69089398 8.49039848 55.77279921 3.625 53.25 C-1.47493918 48.87862356 -2.75459263 45.89580698 -3.3125 39.3125 C-3.2996195 35.8476465 -2.46838707 33.53094767 -0.9375 30.4375 C1.11866957 26.20891098 1.2256967 23.64013752 0 19 C-0.5259375 17.6078125 -0.5259375 17.6078125 -1.0625 16.1875 C-2.3459476 11.82377815 -2.52904178 7.52019519 -2 3 C-1.34 2.01 -0.68 1.02 0 0 Z " fill="#EEE7EE" transform="translate(568,246)"/>
<path d="M0 0 C2.88138722 2.88138722 3.73323527 6.44125207 5.0390625 10.21875 C5.32478119 11.03243042 5.61049988 11.84611084 5.90487671 12.68444824 C6.5076884 14.40504676 7.10768381 16.12663416 7.70507812 17.84912109 C8.62211429 20.49168444 9.54859872 23.13078802 10.4765625 25.76953125 C11.06045753 27.43990792 11.64380937 29.1104746 12.2265625 30.78125 C12.50464752 31.57398315 12.78273254 32.36671631 13.06924438 33.18347168 C15 38.768207 15 38.768207 15 41 C5.43 41 -4.14 41 -14 41 C-12.69422365 35.12400644 -11.48457978 30.15812046 -9.43359375 24.62890625 C-9.07516136 23.65630104 -9.07516136 23.65630104 -8.70948792 22.66404724 C-7.95756125 20.62814843 -7.19755937 18.59537449 -6.4375 16.5625 C-5.9246235 15.17531744 -5.41224981 13.78794888 -4.90039062 12.40039062 C-1.19607425 2.3921485 -1.19607425 2.3921485 0 0 Z " fill="#FDFAF7" transform="translate(670,623)"/>
<path d="M0 0 C0.99 0.66 1.98 1.32 3 2 C3 1.34 3 0.68 3 0 C4.65 0 6.3 0 8 0 C8.0872253 4.39570794 8.14046869 8.79119271 8.1875 13.1875 C8.21263672 14.43337891 8.23777344 15.67925781 8.26367188 16.96289062 C8.27333984 18.16494141 8.28300781 19.36699219 8.29296875 20.60546875 C8.3086792 21.71043701 8.32438965 22.81540527 8.34057617 23.95385742 C7.95650639 27.38901055 7.03086841 29.23218285 5 32 C2.15580705 33.938957 -0.15696583 34.2730493 -3.5625 34.25 C-4.70912109 34.25773438 -4.70912109 34.25773438 -5.87890625 34.265625 C-8 34 -8 34 -11 32 C-10.67 30.35 -10.34 28.7 -10 27 C-9.2265625 27.5259375 -9.2265625 27.5259375 -8.4375 28.0625 C-5.03530841 29.37103523 -2.51474316 28.729475 1 28 C2.29633621 26.93354885 2.29633621 26.93354885 2.0625 24.4375 C2.041875 23.633125 2.02125 22.82875 2 22 C1.01 22.66 0.02 23.32 -1 24 C-5.2934921 23.92193651 -7.29597608 23.70402392 -10.375 20.625 C-13.0830281 16.25049306 -13.71675739 12.06508556 -13 7 C-9.4363265 0.46659858 -7.32179753 -0.38535776 0 0 Z " fill="#DC7D2A" transform="translate(896,729)"/>
<path d="M0 0 C1.65 0 3.3 0 5 0 C6.98 7.59 8.96 15.18 11 23 C12.55864792 17.30227113 12.55864792 17.30227113 14.11083984 11.6027832 C15.20565236 7.63108134 16.34987984 3.78602337 18 0 C19.65 0 21.3 0 23 0 C24.98 7.92 26.96 15.84 29 24 C30.55719523 18.3469235 30.55719523 18.3469235 32.11083984 12.69287109 C33.29338079 8.41782683 34.5478681 4.1935398 36 0 C37.32 0 38.64 0 40 0 C38.96057144 7.5905638 37.30437027 14.70547875 34.953125 21.99609375 C33.79866506 25.63453512 32.87397178 29.28561994 32 33 C30.02 33 28.04 33 26 33 C25.78065796 32.06148193 25.78065796 32.06148193 25.55688477 31.10400391 C24.89467208 28.27705709 24.2286345 25.45102513 23.5625 22.625 C23.33240234 21.64015625 23.10230469 20.6553125 22.86523438 19.640625 C22.64287109 18.69960938 22.42050781 17.75859375 22.19140625 16.7890625 C21.98717041 15.91975098 21.78293457 15.05043945 21.57250977 14.15478516 C21.0704829 11.97217907 21.0704829 11.97217907 20 10 C18.02 17.59 16.04 25.18 14 33 C12.35 33 10.7 33 9 33 C6.79009909 28.1457732 5.16985576 23.38405946 3.9375 18.1875 C3.76831055 17.49333984 3.59912109 16.79917969 3.42480469 16.08398438 C2.13981547 10.75090774 0.98597415 5.39691114 0 0 Z " fill="#DC7E2B" transform="translate(627,721)"/>
<path d="M0 0 C3.08364682 0.33039073 3.97847097 0.97657135 6.125 3.3125 C9.47872458 8.11950523 10.25749515 10.97518622 10.1875 16.9375 C10.18105469 18.14277344 10.17460938 19.34804688 10.16796875 20.58984375 C10.02346763 23.52355251 9.59876937 26.13808537 9 29 C9.36856864 31.23167185 9.36856864 31.23167185 10 33 C11.8253125 32.9071875 11.8253125 32.9071875 13.6875 32.8125 C17.5985386 32.81942219 19.90672835 33.45259982 23 36 C25.33287288 39.22158636 25.17683757 42.10957355 25 46 C24.01 46.495 24.01 46.495 23 47 C22.62875 45.88625 22.2575 44.7725 21.875 43.625 C20.5205979 40.38621238 20.23787197 40.10727559 16.8125 38.5625 C15.4203125 38.2840625 15.4203125 38.2840625 14 38 C14.7734375 39.3921875 14.7734375 39.3921875 15.5625 40.8125 C17 44 17 44 16 47 C15.01 45.02 14.02 43.04 13 41 C12.34 41 11.68 41 11 41 C10.59250325 45.25731568 10.59250325 45.25731568 12.5 48.875 C12.995 49.24625 13.49 49.6175 14 50 C10.68682445 49.73136414 9.36123646 49.40940132 7.125 46.875 C5.43165797 42.54757036 6.39291477 39.04201394 7.6875 34.6875 C7.790625 34.130625 7.89375 33.57375 8 33 C7.34 32.34 6.68 31.68 6 31 C3.32570997 36.34858007 2.42004146 40.00709506 3 46 C4.65804096 49.73059215 6.60218438 51.77384494 10 54 C7.03517326 53.86210108 4.78765516 53.71055664 2.5234375 51.66796875 C-1.51243076 46.81784637 -2.32245117 43.93812985 -2.3046875 37.80078125 C-1.88300657 33.92456039 -0.4845451 30.80185114 1.22265625 27.32421875 C2.58207548 23.25962357 1.23751969 20.49404096 -0.5625 16.75 C-2.41458966 12.60095602 -2.63738974 8.47828372 -2 4 C-0.98046875 1.73046875 -0.98046875 1.73046875 0 0 Z " fill="#0F0F0F" transform="translate(532,380)"/>
<path d="M0 0 C1.010625 -0.00773438 2.02125 -0.01546875 3.0625 -0.0234375 C7.77076434 0.61518346 10.36959201 2.77324692 13.75 6 C16 9.375 16 9.375 17 18.375 C5.78 18.375 -5.44 18.375 -17 18.375 C-15.8627907 10.41453488 -15.8627907 10.41453488 -13.75 7.125 C-13.35296875 6.48046875 -12.9559375 5.8359375 -12.546875 5.171875 C-8.95167191 0.99562899 -5.39148908 -0.0412614 0 0 Z " fill="#FBF9FB" transform="translate(677,525.625)"/>
<path d="M0 0 C4.26377005 2.05360847 6.20331189 5.09072037 8.1796875 9.17578125 C8.80859375 11.37109375 8.80859375 11.37109375 8.80859375 17.37109375 C-2.41140625 17.37109375 -13.63140625 17.37109375 -25.19140625 17.37109375 C-24.12384829 9.898188 -22.21255754 5.05089209 -16.15625 0.2890625 C-11.19848255 -2.02719068 -5.15152989 -1.4784248 0 0 Z " fill="#FBFAFB" transform="translate(887.19140625,526.62890625)"/>
<path d="M0 0 C0.98291016 0.00322266 1.96582031 0.00644531 2.97851562 0.00976562 C4.51475586 0.02233398 4.51475586 0.02233398 6.08203125 0.03515625 C7.63567383 0.04192383 7.63567383 0.04192383 9.22070312 0.04882812 C11.77870391 0.06061615 14.33658858 0.0770711 16.89453125 0.09765625 C17.06553125 9.34115625 17.06553125 9.34115625 13.89453125 14.09765625 C9.4929527 18.54733948 5.75376181 20.24789545 -0.48046875 20.41015625 C-4.36038454 20.38449543 -5.82755454 20.26440478 -9.23046875 18.22265625 C-12.40364151 14.62639378 -12.43944878 11.94941963 -12.39453125 7.29296875 C-12.10546875 5.09765625 -12.10546875 5.09765625 -10.29296875 2.59765625 C-6.8237657 0.21877416 -4.09438912 -0.02366699 0 0 Z " fill="#F8F5F8" transform="translate(393.10546875,552.90234375)"/>
<path d="M0 0 C1.65 0 3.3 0 5 0 C5.33 0.66 5.66 1.32 6 2 C6.66 1.34 7.32 0.68 8 0 C13.0165166 -0.47325628 15.91526758 0.02928551 20 3 C20.53625 2.505 21.0725 2.01 21.625 1.5 C24.74008151 -0.4674199 26.37170989 -0.5923739 30 0 C32.93015518 2.0691008 34.76381186 3.652533 35.40063477 7.28564453 C35.49216823 9.97759515 35.43609353 12.62196398 35.3125 15.3125 C35.28994141 16.24384766 35.26738281 17.17519531 35.24414062 18.13476562 C35.18542078 20.4248396 35.10336858 22.71157875 35 25 C33.35 25 31.7 25 30 25 C29.93941406 23.71222656 29.87882812 22.42445313 29.81640625 21.09765625 C29.73201753 19.41925841 29.6473687 17.74087364 29.5625 16.0625 C29.52318359 15.21236328 29.48386719 14.36222656 29.44335938 13.48632812 C29.40146484 12.67744141 29.35957031 11.86855469 29.31640625 11.03515625 C29.27974854 10.2862915 29.24309082 9.53742676 29.20532227 8.76586914 C29.18228937 6.97538674 29.18228937 6.97538674 28 6 C25.54190002 5.7499227 25.54190002 5.7499227 23 6 C19.97906785 9.02093215 20.53323166 12.56372072 20.375 16.625 C20.33632813 17.42679688 20.29765625 18.22859375 20.2578125 19.0546875 C20.16346069 21.03607556 20.08063785 23.01800645 20 25 C18.35 25 16.7 25 15 25 C14.93941406 23.71222656 14.87882812 22.42445313 14.81640625 21.09765625 C14.73201753 19.41925841 14.6473687 17.74087364 14.5625 16.0625 C14.52318359 15.21236328 14.48386719 14.36222656 14.44335938 13.48632812 C14.38051758 12.27299805 14.38051758 12.27299805 14.31640625 11.03515625 C14.27974854 10.2862915 14.24309082 9.53742676 14.20532227 8.76586914 C14.18228937 6.97538674 14.18228937 6.97538674 13 6 C10.54190002 5.7499227 10.54190002 5.7499227 8 6 C4.97906785 9.02093215 5.53323166 12.56372072 5.375 16.625 C5.33632813 17.42679688 5.29765625 18.22859375 5.2578125 19.0546875 C5.16346069 21.03607556 5.08063785 23.01800645 5 25 C3.35 25 1.7 25 0 25 C0 16.75 0 8.5 0 0 Z " fill="#DC7E2D" transform="translate(410,729)"/>
<path d="M0 0 C3.0220794 1.74450506 5.41651082 3.83302164 7 7 C7.5917588 12.68998842 7.25047199 17.12429202 4 22 C1.40010102 24.88877665 0.0094552 24.99894942 -3.9375 25.4375 C-8.04824304 25.27674469 -10.13888164 24.02941944 -13 21 C-15.52291819 16.75367995 -15.69481549 12.83022333 -15 8 C-11.5394134 1.43681852 -7.52286433 -1.43360245 0 0 Z " fill="#DC7E2D" transform="translate(488,729)"/>
<path d="M0 0 C1.515625 1.390625 1.515625 1.390625 3 3 C2.75 4.75 2.75 4.75 2 7 C0.96356718 11.78463581 0.96356718 11.78463581 1.9375 16.4375 C2.4634375 17.2109375 2.4634375 17.2109375 3 18 C3.66 18 4.32 18 5 18 C4.67 17.67 4.34 17.34 4 17 C3.95919217 15.00041636 3.95745644 12.99954746 4 11 C5.32 11 6.64 11 8 11 C8.33 11.33 8.66 11.66 9 12 C8.67 10.68 8.34 9.36 8 8 C10.25 7.6875 10.25 7.6875 13 8 C16.53992319 11.34326079 17.69862388 14.17798209 18 19 C17.690625 20.2375 17.690625 20.2375 17.375 21.5 C16.73210672 24.15295025 16.73210672 24.15295025 18.4375 26.875 C20.30401865 30.6080373 20.53462133 32.8757783 20 37 C18.4375 39.4375 18.4375 39.4375 16 41 C11.59796571 41.46337203 9.7205836 41.48038907 6 39 C5.75 35.4375 5.75 35.4375 6 32 C7 31 7 31 9.4375 30.8125 C12 31 12 31 14 33 C13.625 35.625 13.625 35.625 13 38 C14.98 37.505 14.98 37.505 17 37 C17.50044283 31.13582285 17.50044283 31.13582285 15 26 C14.34 25.34 13.68 24.68 13 24 C12.01 24.33 11.02 24.66 10 25 C8.60560336 25.06665376 7.20830125 25.08538199 5.8125 25.0625 C3.9253125 25.0315625 3.9253125 25.0315625 2 25 C2 24.34 2 23.68 2 23 C1.195625 22.360625 0.39125 21.72125 -0.4375 21.0625 C-3 19 -3 19 -4 16 C-4.55128385 9.49485054 -3.32367399 5.5790242 0 0 Z " fill="#282828" transform="translate(538,410)"/>
<path d="M0 0 C4.88765533 1.35768204 6.52591098 3.67034421 9 8 C11.52641324 15.57923973 10.21976654 22.88968223 7 30 C6.34 30 5.68 30 5 30 C1.59865473 39.32954401 1.59865473 39.32954401 3.25 48.75 C6.47396223 52.89509429 9.93381668 53.30915682 15 54 C15 54.33 15 54.66 15 55 C8.90501137 55.42034404 5.87112047 55.07814737 1 51 C-2.82234504 46.78223995 -3.32566168 42.85299143 -3.3046875 37.2109375 C-2.94934043 34.63239334 -2.08969817 32.76573491 -0.9375 30.4375 C1.11866957 26.20891098 1.2256967 23.64013752 0 19 C-0.5259375 17.6078125 -0.5259375 17.6078125 -1.0625 16.1875 C-2.3459476 11.82377815 -2.52904178 7.52019519 -2 3 C-1.34 2.01 -0.68 1.02 0 0 Z " fill="#F3EFF3" transform="translate(568,246)"/>
<path d="M0 0 C2.69105198 2.17574416 4.45532928 3.91065856 6 7 C6.13415472 9.6723621 6.04318541 12.32250488 6 15 C1.05 15 -3.9 15 -9 15 C-8.01 16.65 -7.02 18.3 -6 20 C-4.3603125 19.7525 -4.3603125 19.7525 -2.6875 19.5 C1 19 1 19 4 19 C3.6875 20.875 3.6875 20.875 3 23 C-0.66908557 25.44605705 -3.73618769 25.83946402 -8 25 C-10.69105198 22.82425584 -12.45532928 21.08934144 -14 18 C-14.41251687 13.07359656 -14.6526414 8.52282992 -12.6875 3.9375 C-9.08417589 -0.19964991 -5.26130971 -1.0358524 0 0 Z " fill="#DC7D2A" transform="translate(705,729)"/>
<path d="M0 0 C0.99 0 1.98 0 3 0 C5.46185029 4.37224612 5.65650388 8.07216841 5 13 C3.16208486 18.56341879 0.10419457 21.89580543 -4 26 C-5.21415163 28.29339753 -6.09085307 30.55965825 -7 33 C-7.66 31.68 -8.32 30.36 -9 29 C-14.12011278 33.3105223 -18.54585964 37.2430994 -22 43 C-22.33 43 -22.66 43 -23 43 C-23.74921668 37.13113599 -22.3057171 33.91887362 -18.9296875 29.11328125 C-16.84749125 26.83298131 -14.87685551 25.61574499 -12.1875 24.125 C-9.81315226 22.81447561 -9.81315226 22.81447561 -8 21 C-7.3093687 18.18535167 -7.25020556 15.65513478 -7.23046875 12.76171875 C-6.79273251 7.5163031 -3.62627687 3.62627687 0 0 Z " fill="#130700" transform="translate(505,242)"/>
<path d="M0 0 C3.5 1.5 3.5 1.5 6 3 C5.67 4.65 5.34 6.3 5 8 C4.13375 7.67 3.2675 7.34 2.375 7 C-0.95718275 6.01268659 -3.55159538 5.83579026 -7 6 C-7 7.65 -7 9.3 -7 11 C-6.31292969 11.32613281 -5.62585938 11.65226563 -4.91796875 11.98828125 C-4.01691406 12.42527344 -3.11585938 12.86226562 -2.1875 13.3125 C-1.29417969 13.74175781 -0.40085937 14.17101562 0.51953125 14.61328125 C2.85568745 15.91932133 4.40410351 16.86522937 6 19 C6.62262378 22.04580823 6.51472236 24.9393391 6 28 C4.12379387 30.50160818 2.76108697 31.61945652 0 33 C-4.63518261 33.56549228 -8.59939799 33.67674909 -12.5625 31 C-13.366875 30.34 -14.17125 29.68 -15 29 C-14.67 27.35 -14.34 25.7 -14 24 C-9.25 25.875 -9.25 25.875 -7 27 C-5.00039988 27.039992 -2.99952758 27.04346799 -1 27 C-0.34 25.02 0.32 23.04 1 21 C0.40832031 20.84144531 -0.18335938 20.68289063 -0.79296875 20.51953125 C-5.99089504 18.98474388 -9.80524068 17.63755385 -13 13 C-13.69682939 10.16085214 -13.69821085 7.83862773 -13 5 C-9.59769688 -0.10345467 -5.87476531 -1.09937129 0 0 Z " fill="#DB7B27" transform="translate(764,721)"/>
<path d="M0 0 C1.32 0 2.64 0 4 0 C4 4.62 4 9.24 4 14 C8.95 14 13.9 14 19 14 C19 9.38 19 4.76 19 0 C20.32 0 21.64 0 23 0 C23 10.89 23 21.78 23 33 C21.68 33 20.36 33 19 33 C19 28.38 19 23.76 19 19 C14.05 19 9.1 19 4 19 C4 23.62 4 28.24 4 33 C2.68 33 1.36 33 0 33 C0 22.11 0 11.22 0 0 Z " fill="#DA7721" transform="translate(269,721)"/>
<path d="M0 0 C0.7528125 -0.02835938 1.505625 -0.05671875 2.28125 -0.0859375 C4.5 0.375 4.5 0.375 6.765625 1.7265625 C9.53067674 5.94887124 8.92041084 10.20274836 8.75 15.125 C8.73195313 16.10855469 8.71390625 17.09210937 8.6953125 18.10546875 C8.64824126 20.52963783 8.58250742 22.95182059 8.5 25.375 C7.71625 25.189375 6.9325 25.00375 6.125 24.8125 C3.52910225 24.11537734 3.52910225 24.11537734 1.5 25.375 C-2.33614957 25.73019903 -4.64629634 25.92224594 -7.9375 23.8125 C-10.10396028 20.43282196 -10.06288002 18.31516013 -9.5 14.375 C-8.125 11.9375 -8.125 11.9375 -5.5 10.375 C-2.13939316 10.05368806 1.13562234 10.14385955 4.5 10.375 C4.17 8.725 3.84 7.075 3.5 5.375 C-2.07830016 5.25030901 -2.07830016 5.25030901 -7.5 6.375 C-7.83 5.055 -8.16 3.735 -8.5 2.375 C-5.57508744 0.71311786 -3.36280527 0.05758228 0 0 Z " fill="#DB7A25" transform="translate(331.5,728.625)"/>
<path d="M0 0 C1.32 0 2.64 0 4 0 C4.33 0.99 4.66 1.98 5 3 C5.350625 2.505 5.70125 2.01 6.0625 1.5 C8 0 8 0 11.375 -0.5 C15 0 15 0 17.70703125 1.88671875 C20.98384172 6.33581235 20.55913937 9.94335069 20.3125 15.3125 C20.28994141 16.24384766 20.26738281 17.17519531 20.24414062 18.13476562 C20.18542078 20.4248396 20.10336858 22.71157875 20 25 C18.35 25 16.7 25 15 25 C14.93941406 23.71222656 14.87882813 22.42445313 14.81640625 21.09765625 C14.73201753 19.41925841 14.6473687 17.74087364 14.5625 16.0625 C14.52318359 15.21236328 14.48386719 14.36222656 14.44335938 13.48632812 C14.38051758 12.27299805 14.38051758 12.27299805 14.31640625 11.03515625 C14.27974854 10.2862915 14.24309082 9.53742676 14.20532227 8.76586914 C14.18228937 6.97538674 14.18228937 6.97538674 13 6 C10.58462162 5.58282721 10.58462162 5.58282721 8 6 C4.45810177 9.35413495 4.46500876 13.13987801 4.3125 17.75 C4.27833984 18.44738281 4.24417969 19.14476562 4.20898438 19.86328125 C4.12691705 21.57497108 4.06177081 23.2874576 4 25 C2.68 25 1.36 25 0 25 C0 16.75 0 8.5 0 0 Z " fill="#DB7B27" transform="translate(835,729)"/>
<path d="M0 0 C1.32 0 2.64 0 4 0 C4.33 0.99 4.66 1.98 5 3 C5.350625 2.505 5.70125 2.01 6.0625 1.5 C8 0 8 0 11.375 -0.5 C15 0 15 0 17.70703125 1.88671875 C20.98384172 6.33581235 20.55913937 9.94335069 20.3125 15.3125 C20.28994141 16.24384766 20.26738281 17.17519531 20.24414062 18.13476562 C20.18542078 20.4248396 20.10336858 22.71157875 20 25 C18.35 25 16.7 25 15 25 C14.93941406 23.71222656 14.87882813 22.42445313 14.81640625 21.09765625 C14.73201753 19.41925841 14.6473687 17.74087364 14.5625 16.0625 C14.52318359 15.21236328 14.48386719 14.36222656 14.44335938 13.48632812 C14.38051758 12.27299805 14.38051758 12.27299805 14.31640625 11.03515625 C14.27974854 10.2862915 14.24309082 9.53742676 14.20532227 8.76586914 C14.18228937 6.97538674 14.18228937 6.97538674 13 6 C10.58462162 5.58282721 10.58462162 5.58282721 8 6 C4.45810177 9.35413495 4.46500876 13.13987801 4.3125 17.75 C4.27833984 18.44738281 4.24417969 19.14476562 4.20898438 19.86328125 C4.12691705 21.57497108 4.06177081 23.2874576 4 25 C2.68 25 1.36 25 0 25 C0 16.75 0 8.5 0 0 Z " fill="#DB7B27" transform="translate(524,729)"/>
<path d="M0 0 C1.32 0 2.64 0 4 0 C4.33 0.99 4.66 1.98 5 3 C5.350625 2.505 5.70125 2.01 6.0625 1.5 C9.06034694 -0.82091376 11.32644233 -0.45113866 15 0 C17.36497439 1.86708505 18.66030715 3.32061431 20 6 C20.08342159 7.44848582 20.10732861 8.90070869 20.09765625 10.3515625 C20.09443359 11.20234375 20.09121094 12.053125 20.08789062 12.9296875 C20.07951172 13.81914063 20.07113281 14.70859375 20.0625 15.625 C20.05798828 16.5221875 20.05347656 17.419375 20.04882812 18.34375 C20.03702591 20.56256648 20.02056155 22.78125018 20 25 C18.35 25 16.7 25 15 25 C14.93941406 23.79601562 14.87882813 22.59203125 14.81640625 21.3515625 C14.73200268 19.77602923 14.64735459 18.20050904 14.5625 16.625 C14.52318359 15.8309375 14.48386719 15.036875 14.44335938 14.21875 C14.31106596 9.97398779 14.31106596 9.97398779 13 6 C10.6568787 6.25561323 8.32156597 6.59270772 6 7 C4.414131 10.171738 4.62133555 13.63513822 4.4375 17.125 C4.39431641 17.87910156 4.35113281 18.63320313 4.30664062 19.41015625 C4.2005168 21.27321888 4.09974999 23.13658524 4 25 C2.68 25 1.36 25 0 25 C0 16.75 0 8.5 0 0 Z " fill="#DB7B27" transform="translate(207,729)"/>
<path d="M0 0 C1.65 0 3.3 0 5 0 C5.34933594 1.07121094 5.69867187 2.14242187 6.05859375 3.24609375 C6.51807145 4.64328104 6.97771546 6.04041365 7.4375 7.4375 C7.78264648 8.49807617 7.78264648 8.49807617 8.13476562 9.58007812 C9.07421147 13.06306795 9.07421147 13.06306795 11 16 C12.65 10.72 14.3 5.44 16 0 C17.65 0 19.3 0 21 0 C19.64263326 4.36375321 18.2731361 8.72343946 16.89233398 13.07983398 C16.42447219 14.56185551 15.95992248 16.04492692 15.4987793 17.52905273 C14.8347315 19.66415581 14.15880036 21.79517958 13.48046875 23.92578125 C13.27721481 24.58838455 13.07396088 25.25098785 12.86454773 25.93367004 C10.92276099 31.95782932 10.92276099 31.95782932 8 34 C4.90498792 34.25265405 2.79870027 34.39935013 0 33 C0.33 31.68 0.66 30.36 1 29 C2.98 29 4.96 29 7 29 C7.46253073 21.99596323 5.8448764 16.56384322 3.5 10 C3.16613281 9.03449219 2.83226562 8.06898438 2.48828125 7.07421875 C1.66972571 4.71210134 0.84016314 2.35449975 0 0 Z " fill="#DB7C28" transform="translate(570,729)"/>
<path d="M0 0 C6.95628562 4.82560734 12.81868848 10.54368682 18.74755859 16.54174805 C20.38709634 18.19973243 22.03468729 19.84938456 23.68359375 21.49804688 C24.734851 22.55421393 25.78564923 23.61083811 26.8359375 24.66796875 C27.3254892 25.15863327 27.81504089 25.64929779 28.31942749 26.15483093 C34 31.91513762 34 31.91513762 34 36 C29.01430887 34.52046872 26.23713497 31.62841421 22.7109375 28.00390625 C22.12583405 27.41455795 21.54073059 26.82520966 20.93789673 26.21800232 C19.07640983 24.33978543 17.22563259 22.4514066 15.375 20.5625 C14.12309278 19.29553492 12.87049556 18.02925123 11.6171875 16.76367188 C9.32040365 14.44242395 7.02756691 12.11743557 4.73974609 9.78735352 C3.29303741 8.31550598 1.83613452 6.85098957 0.30923462 5.46250916 C-0.12281281 4.97988113 -0.55486023 4.49725311 -1 4 C-0.6875 1.8125 -0.6875 1.8125 0 0 Z " fill="#FEF4EE" transform="translate(545,332)"/>
<path d="M0 0 C0.99 1.32 1.98 2.64 3 4 C2.5153125 4.4125 2.030625 4.825 1.53125 5.25 C-2.83549157 9.01211581 -6.95717533 12.92119603 -10.99609375 17.03125 C-12.95056452 18.95143181 -14.97313939 20.72867309 -17.0625 22.5 C-19.89890263 24.91928459 -22.30280536 27.44776942 -24.6875 30.3125 C-27.19470204 33.28548958 -29.10004302 35.05455588 -33 36 C-32.76076165 30.40407578 -29.18725541 27.65891206 -25.41015625 23.984375 C-24.7504332 23.32794006 -24.09071014 22.67150513 -23.41099548 21.99517822 C-22.01763624 20.61222664 -20.61952797 19.23404563 -19.21704102 17.86035156 C-17.06515226 15.75259786 -14.92695697 13.63171414 -12.79101562 11.5078125 C-11.4356679 10.16588643 -10.07957333 8.82471417 -8.72265625 7.484375 C-8.0799025 6.84900818 -7.43714874 6.21364136 -6.7749176 5.559021 C-6.1776738 4.97461243 -5.58042999 4.39020386 -4.96508789 3.78808594 C-4.43959854 3.2724408 -3.91410919 2.75679565 -3.37269592 2.2255249 C-2 1 -2 1 0 0 Z " fill="#F5F1F5" transform="translate(521,334)"/>
<path d="M0 0 C0.99 0.33 1.98 0.66 3 1 C3.8125 2.9375 3.8125 2.9375 4 5 C3.34 5.66 2.68 6.32 2 7 C1.8028583 11.13997567 1.69234522 14.07703567 3 18 C3.99 18 4.98 18 6 18 C5.34 17.34 4.68 16.68 4 16 C4.375 12.375 4.375 12.375 5 9 C8.63491543 10.21163848 8.95246215 11.10771062 10.75 14.375 C11.19859375 15.16648437 11.6471875 15.95796875 12.109375 16.7734375 C13 19 13 19 12 22 C3.01262916 22.78530425 3.01262916 22.78530425 -1.0625 19.625 C-4.18444798 15.39526402 -4.07150332 13.40347405 -3.45703125 8.33203125 C-2.84866434 5.22780008 -1.5992081 2.71170068 0 0 Z " fill="#611B60" transform="translate(573,277)"/>
<path d="M0 0 C0.3125 3.3125 0.3125 3.3125 0 7 C-2.375 8.8125 -2.375 8.8125 -5 10 C-7.31686366 11.87644507 -7.31686366 11.87644507 -7.1875 14.9375 C-7.12950232 18.04093079 -7.12950232 18.04093079 -6 21 C-5.67 20.67 -5.34 20.34 -5 20 C-5.020625 19.030625 -5.04125 18.06125 -5.0625 17.0625 C-5 14 -5 14 -3 12 C-2.01 12 -1.02 12 0 12 C0 16.29 0 20.58 0 25 C-6.16163774 25 -6.90836217 24.97473389 -11 21 C-12.65247981 17.69504039 -12.7694644 14.54325947 -12 11 C-9.84514281 7.66707528 -4.41553325 0 0 0 Z " fill="#EF610C" transform="translate(497,270)"/>
<path d="M0 0 C1.515625 1.390625 1.515625 1.390625 3 3 C2.75 4.75 2.75 4.75 2 7 C0.96356718 11.78463581 0.96356718 11.78463581 1.9375 16.4375 C2.4634375 17.2109375 2.4634375 17.2109375 3 18 C3.66 18 4.32 18 5 18 C4.67 17.67 4.34 17.34 4 17 C3.95919217 15.00041636 3.95745644 12.99954746 4 11 C5.32 11 6.64 11 8 11 C8.70226141 12.24176695 9.38629109 13.49385599 10.0625 14.75 C10.44535156 15.44609375 10.82820312 16.1421875 11.22265625 16.859375 C12.1312406 19.36140628 11.88336837 20.5332355 11 23 C3.03411131 23.62477558 3.03411131 23.62477558 -1 21.1875 C-4.0791571 17.81967192 -4.32571584 14.68694608 -4.30078125 10.20703125 C-3.78130177 6.39526621 -1.94751089 3.26903613 0 0 Z " fill="#F0F0F0" transform="translate(538,410)"/>
<path d="M0 0 C1.65 0 3.3 0 5 0 C5 10.89 5 21.78 5 33 C3.35 33 1.7 33 0 33 C0 22.11 0 11.22 0 0 Z " fill="#DC7F2D" transform="translate(171,721)"/>
<path d="M0 0 C2.67818441 4.01727661 2.68882655 7.28026255 2 12 C0.3125 14.625 0.3125 14.625 -2 16 C-5.10381707 16 -6.46801331 15.45860921 -8.8125 13.4375 C-10.61831894 9.73081902 -10.39189103 7.11485579 -10 3 C-7.8345233 -1.07619143 -4.1908017 -0.45717837 0 0 Z " fill="#FCF9F7" transform="translate(488,734)"/>
<path d="M0 0 C0.66 0.33 1.32 0.66 2 1 C2 1.66 2 2.32 2 3 C3.8253125 2.9071875 3.8253125 2.9071875 5.6875 2.8125 C9.5985386 2.81942219 11.90672835 3.45259982 15 6 C17.33287288 9.22158636 17.17683757 12.10957355 17 16 C16.34 16.33 15.68 16.66 15 17 C14.62875 15.88625 14.2575 14.7725 13.875 13.625 C12.5205979 10.38621238 12.23787197 10.10727559 8.8125 8.5625 C7.4203125 8.2840625 7.4203125 8.2840625 6 8 C6.515625 8.928125 7.03125 9.85625 7.5625 10.8125 C9 14 9 14 8 17 C7.01 15.02 6.02 13.04 5 11 C4.34 11 3.68 11 3 11 C2.59250325 15.25731568 2.59250325 15.25731568 4.5 18.875 C4.995 19.24625 5.49 19.6175 6 20 C2.68682445 19.73136414 1.36123646 19.40940132 -0.875 16.875 C-2.75636397 12.06706985 -1.2067457 7.8269828 0 3 C0 2.01 0 1.02 0 0 Z " fill="#151515" transform="translate(540,410)"/>
<path d="M0 0 C2.13397474 1.61957988 2.91348045 2.48646463 3.36328125 5.15625 C3.34652344 5.9296875 3.32976563 6.703125 3.3125 7.5 C3.30863281 8.2734375 3.30476562 9.046875 3.30078125 9.84375 C3 12 3 12 1 15 C-2.4375 15.5 -2.4375 15.5 -6 15 C-8 12.9375 -8 12.9375 -9 10 C-8.87924634 6.49814374 -8.66503525 4.03080463 -6.75 1.0625 C-4.31689101 -0.41474475 -2.79657176 -0.41948576 0 0 Z " fill="#FCF7F2" transform="translate(896,733)"/>
<path d="M0 0 C3.88862987 1.26117725 5.89375599 2.45264167 8 6 C8 6.66 8 7.32 8 8 C7.34 8 6.68 8 6 8 C6.01160156 8.69867188 6.02320313 9.39734375 6.03515625 10.1171875 C6.04869141 11.48230469 6.04869141 11.48230469 6.0625 12.875 C6.07410156 13.77992188 6.08570313 14.68484375 6.09765625 15.6171875 C6 18 6 18 5 20 C2.9375 20.625 2.9375 20.625 1 21 C-1.68253126 14.96430467 -2.90666286 9.62923625 -2 3 C-1.34 2.01 -0.68 1.02 0 0 Z " fill="#EDE6ED" transform="translate(568,246)"/>
<path d="M0 0 C1.32 0 2.64 0 4 0 C4.33 0.99 4.66 1.98 5 3 C5.433125 2.505 5.86625 2.01 6.3125 1.5 C8 0 8 0 11 0 C11.3125 2.3125 11.3125 2.3125 11 5 C8.5625 6.75 8.5625 6.75 6 8 C3.94077598 10.05922402 4.58572421 14.21708124 4.4375 17.0625 C4.39431641 17.82111328 4.35113281 18.57972656 4.30664062 19.36132812 C4.20026367 21.24065438 4.09960066 23.12030244 4 25 C2.68 25 1.36 25 0 25 C0 16.75 0 8.5 0 0 Z " fill="#DA7620" transform="translate(371,729)"/>
<path d="M0 0 C0.33 0 0.66 0 1 0 C1.27672202 1.91299138 1.52042815 3.83077936 1.75 5.75 C1.95882813 7.35101563 1.95882813 7.35101563 2.171875 8.984375 C2 12 2 12 0.265625 14.359375 C-2.74469276 16.53926028 -4.48482307 16.58496319 -8.08984375 16.3828125 C-10 16 -10 16 -12.5625 14.375 C-14 12 -14 12 -13.875 8.875 C-13 6 -13 6 -11 4 C-6.44444444 4.55555556 -6.44444444 4.55555556 -5 6 C-4.75 8.375 -4.75 8.375 -5 11 C-6.5 12.8125 -6.5 12.8125 -8 14 C-4.18186553 13.72459296 -4.18186553 13.72459296 -1 12 C-0.76572222 9.98405418 -0.58663876 7.961526 -0.4375 5.9375 C-0.35371094 4.83277344 -0.26992188 3.72804688 -0.18359375 2.58984375 C-0.12300781 1.73519531 -0.06242187 0.88054687 0 0 Z " fill="#250F01" transform="translate(496,297)"/>
<path d="M0 0 C1.32 0 2.64 0 4 0 C4 8.25 4 16.5 4 25 C2.68 25 1.36 25 0 25 C0 16.75 0 8.5 0 0 Z " fill="#DA751D" transform="translate(800,729)"/>
<path d="M0 0 C1.8125 1.8125 1.8125 1.8125 3 4 C3 4.99 3 5.98 3 7 C-0.96 7 -4.92 7 -9 7 C-8.67 5.35 -8.34 3.7 -8 2 C-4.77856724 -0.14762184 -3.7404533 -0.561068 0 0 Z " fill="#F9EBE0" transform="translate(704,733)"/>
<path d="M0 0 C2.625 0.375 2.625 0.375 5 1 C5.625 3.3125 5.625 3.3125 6 6 C5.01 7.485 5.01 7.485 4 9 C4.99 9.33 5.98 9.66 7 10 C3.625 10.125 3.625 10.125 0 10 C-2 8 -2 8 -2.25 5 C-2 2 -2 2 0 0 Z " fill="#F6F3F6" transform="translate(581,307)"/>
<path d="M0 0 C2.5625 0.1875 2.5625 0.1875 4.5625 2.1875 C4.1875 4.8125 4.1875 4.8125 3.5625 7.1875 C2.9025 7.1875 2.2425 7.1875 1.5625 7.1875 C1.5625 7.8475 1.5625 8.5075 1.5625 9.1875 C2.5525 9.5175 3.5425 9.8475 4.5625 10.1875 C-2.3125 9.3125 -2.3125 9.3125 -3.4375 8.1875 C-3.5625 4.6875 -3.5625 4.6875 -3.4375 1.1875 C-2.4375 0.1875 -2.4375 0.1875 0 0 Z " fill="#0B0B0B" transform="translate(547.4375,440.8125)"/>
<path d="M0 0 C2.62655933 0.35494045 4.57968261 0.72461964 6.8125 2.1875 C8.58260835 4.88924432 8.39415803 6.84673574 8 10 C6.4765625 11.6875 6.4765625 11.6875 5 13 C4.15930585 11.39967863 3.32768495 9.79458829 2.5 8.1875 C1.80390625 6.84751953 1.80390625 6.84751953 1.09375 5.48046875 C0 3 0 3 0 0 Z " fill="#621C61" transform="translate(582,284)"/>
<path d="M0 0 C-0.26327654 6.45027515 -2.50664023 9.47915791 -7 14 C-8.15006091 10.62700256 -7.85199953 8.65146785 -6.6875 5.3125 C-6.42324219 4.52488281 -6.15898437 3.73726562 -5.88671875 2.92578125 C-4.48211182 -0.12475275 -3.29263461 0 0 0 Z " fill="#EF610C" transform="translate(507,248)"/>
<path d="M0 0 C1.23556641 0.01740234 1.23556641 0.01740234 2.49609375 0.03515625 C3.32238281 0.04417969 4.14867187 0.05320312 5 0.0625 C5.63808594 0.07410156 6.27617187 0.08570313 6.93359375 0.09765625 C6.62109375 2.47265625 6.62109375 2.47265625 5.93359375 5.09765625 C2.93359375 7.09765625 2.93359375 7.09765625 0.24609375 6.72265625 C-0.51703125 6.51640625 -1.28015625 6.31015625 -2.06640625 6.09765625 C-2.44859392 4.44150968 -2.78035727 2.77308601 -3.06640625 1.09765625 C-2.06640625 0.09765625 -2.06640625 0.09765625 0 0 Z " fill="#FCF8F4" transform="translate(329.06640625,742.90234375)"/>
<path d="M0 0 C1.32 0.66 2.64 1.32 4 2 C4.02698189 3.62490954 4.04638757 5.24994633 4.0625 6.875 C4.07410156 7.77992188 4.08570313 8.68484375 4.09765625 9.6171875 C4 12 4 12 3 14 C2.01 13.67 1.02 13.34 0 13 C-0.94738023 10.15785932 -1.13460559 8.32391609 -1.125 5.375 C-1.12757813 4.57835937 -1.13015625 3.78171875 -1.1328125 2.9609375 C-1 1 -1 1 0 0 Z " fill="#5E165D" transform="translate(570,252)"/>
<path d="M0 0 C2.6664882 -0.21620175 4.44004321 -0.30894168 6.8125 1 C8.73618446 4.23988962 8.18282384 7.2825819 8 11 C7.01 11 6.02 11 5 11 C4.16151196 9.54462432 3.32936066 8.08559627 2.5 6.625 C1.80390625 5.40683594 1.80390625 5.40683594 1.09375 4.1640625 C0 2 0 2 0 0 Z " fill="#F1F1F1" transform="translate(546,418)"/>
<path d="M0 0 C1.32 0.66 2.64 1.32 4 2 C4.05447047 3.41623216 4.09300508 4.83308191 4.125 6.25 C4.14820313 7.03890625 4.17140625 7.8278125 4.1953125 8.640625 C3.9828378 11.20731941 3.28654105 12.7916067 2 15 C-1.00244501 9.99592499 -1.38493338 6.67776737 -1 1 C-0.67 0.67 -0.34 0.34 0 0 Z " fill="#F4F4F4" transform="translate(534,386)"/>
<path d="M0 0 C4 2 4 2 5 3 C4.53488372 9.27906977 4.53488372 9.27906977 2.5625 11.9375 C1 13 1 13 -1 13 C-0.67 8.71 -0.34 4.42 0 0 Z " fill="#F1620C" transform="translate(499,282)"/>
<path d="M0 0 C3.25231876 4.71025475 3.54405957 8.46872767 3 14 C1.625 16 1.625 16 0 17 C-0.66 17 -1.32 17 -2 17 C-1.67 16.01 -1.34 15.02 -1 14 C-0.34 14 0.32 14 1 14 C0.58846263 9.02906176 0.20399168 4.55491614 -2 0 C-3.051875 0.2784375 -3.051875 0.2784375 -4.125 0.5625 C-7.33888698 1.05156976 -9.83560336 0.66231558 -13 0 C-13 -0.33 -13 -0.66 -13 -1 C-3.87521968 -2.54657293 -3.87521968 -2.54657293 0 0 Z " fill="#E1D5E1" transform="translate(590,300)"/>
<path d="M0 0 C0.33 0 0.66 0 1 0 C1.2475 1.258125 1.495 2.51625 1.75 3.8125 C2.44529725 6.54540448 2.83154766 7.81349919 4.75 9.9375 C7.48231555 11.22776012 10.00872861 11.6600828 13 12 C10 14 10 14 7.6875 14.0625 C3.69054257 12.48230753 1.3295691 9.56070214 -1 6 C-1.796875 3.89453125 -1.796875 3.89453125 -2 2 C-1.34 1.34 -0.68 0.68 0 0 Z " fill="#2E1202" transform="translate(484,283)"/>
<path d="M0 0 C0.33 1.32 0.66 2.64 1 4 C1.66 4 2.32 4 3 4 C3.13277344 4.68707031 3.26554688 5.37414062 3.40234375 6.08203125 C3.57894531 6.98308594 3.75554688 7.88414062 3.9375 8.8125 C4.19853516 10.15248047 4.19853516 10.15248047 4.46484375 11.51953125 C4.97741153 14.11397171 4.97741153 14.11397171 6 17 C5.34 17.33 4.68 17.66 4 18 C0.67202085 11.71546794 -0.45164525 7.11341265 0 0 Z " fill="#313131" transform="translate(530,384)"/>
<path d="M0 0 C0.33 0 0.66 0 1 0 C1.73598077 8.49208584 2.29526567 16.53095523 1 25 C0.67 25 0.34 25 0 25 C0 21.7 0 18.4 0 15 C-0.99 14.67 -1.98 14.34 -3 14 C-2.01 14 -1.02 14 0 14 C0 9.38 0 4.76 0 0 Z " fill="#010000" transform="translate(497,282)"/>
<path d="M0 0 C1.32 0 2.64 0 4 0 C4 1.65 4 3.3 4 5 C2.68 5 1.36 5 0 5 C-0.5625 3.0625 -0.5625 3.0625 -1 1 C-0.67 0.67 -0.34 0.34 0 0 Z " fill="#DC7F2D" transform="translate(800,719)"/>
<path d="M0 0 C0.33 0 0.66 0 1 0 C1.66 3.96 2.32 7.92 3 12 C2.01 12.495 2.01 12.495 1 13 C0.44213732 11.40139351 -0.09579568 9.79582095 -0.625 8.1875 C-0.92664063 7.29417969 -1.22828125 6.40085937 -1.5390625 5.48046875 C-2 3 -2 3 0 0 Z " fill="#D7C6D7" transform="translate(568,254)"/>
<path d="M0 0 C1.125 1.75 1.125 1.75 2 4 C1.375 6.1875 1.375 6.1875 0 8 C-2.95319818 9.23843794 -3.87438528 9.04187157 -7 8 C-6.67 7.34 -6.34 6.68 -6 6 C-3.4375 5.375 -3.4375 5.375 -1 5 C-0.67 3.35 -0.34 1.7 0 0 Z " fill="#444444" transform="translate(556,442)"/>
<path d="M0 0 C0.66 0.33 1.32 0.66 2 1 C2 1.99 2 2.98 2 4 C0.02 4.99 -1.96 5.98 -4 7 C-4.33 6.34 -4.66 5.68 -5 5 C-3.35 3.35 -1.7 1.7 0 0 Z " fill="#2F1302" transform="translate(503,290)"/>
</svg>
